<svg width="38" height="38" viewBox="0 0 38 38" fill="none" xmlns="http://www.w3.org/2000/svg">
<g id="done_outline_24px">
<path id="icon/action/done_outline_24px" fill-rule="evenodd" clip-rule="evenodd" d="M13.3474 21.2879L29.0699 5.56541C30.3049 4.33041 32.2999 4.33041 33.5507 5.56541L35.7674 7.78208C37.0024 9.01708 37.0024 11.0279 35.7674 12.2629L15.5799 32.4346C14.3449 33.6696 12.3341 33.6696 11.0991 32.4346L2.2324 23.5679C0.997402 22.3329 0.997402 20.3221 2.2324 19.0871L4.44907 16.8704C5.68407 15.6354 7.6949 15.6354 8.9299 16.8704L13.3474 21.2879ZM32.4107 11.1387C33.0282 10.5212 33.0282 9.53958 32.4107 8.92208C31.7932 8.30458 30.8116 8.30458 30.1941 8.92208L13.3474 25.7687L7.80574 20.2271C7.18824 19.6096 6.20657 19.6096 5.58907 20.2271C5.29275 20.5198 5.12598 20.9189 5.12598 21.3354C5.12598 21.7519 5.29275 22.1511 5.58907 22.4437L12.2391 29.0937C12.8566 29.7112 13.8382 29.7112 14.4557 29.0937L32.4107 11.1387Z" fill="black" fill-opacity="0.54"/>
</g>
</svg>
