<svg width="338" height="338" viewBox="0 0 338 338" fill="none" xmlns="http://www.w3.org/2000/svg">
<g opacity="0.8" filter="url(#filter0_i)">
<circle cx="169" cy="169" r="169" fill="#F2F2F2"/>
</g>
<g opacity="0.8" filter="url(#filter1_d)">
<circle cx="169.275" cy="168.725" r="135.2" fill="white"/>
</g>
<circle cx="170.35" cy="168.176" r="106.728" stroke="#FBBABA" stroke-width="20"/>
<g filter="url(#filter2_d)">
<circle cx="170.899" cy="168.725" r="96.7285" fill="white"/>
</g>
<path d="M174.197 298.665C174.197 300.659 173.089 302.276 171.723 302.276C170.358 302.276 169.25 300.659 169.25 298.665C169.25 296.67 170.358 289.636 171.723 289.636C173.089 289.636 174.197 296.67 174.197 298.665Z" fill="#C4C4C4"/>
<path d="M152.411 295.285C152.166 296.827 151.239 297.961 150.34 297.819C149.441 297.676 148.909 296.311 149.154 294.769C149.398 293.227 150.988 287.906 151.888 288.048C152.787 288.19 152.655 293.743 152.411 295.285Z" fill="#C4C4C4"/>
<path d="M132.995 290.71C132.513 292.194 131.42 293.17 130.554 292.888C129.688 292.607 129.377 291.175 129.859 289.691C130.341 288.206 132.745 283.198 133.611 283.48C134.477 283.761 133.477 289.225 132.995 290.71Z" fill="#C4C4C4"/>
<path d="M114.597 283.747C113.888 285.138 112.656 285.93 111.845 285.517C111.033 285.104 110.95 283.641 111.659 282.25C112.367 280.859 115.524 276.289 116.336 276.703C117.147 277.116 115.306 282.356 114.597 283.747Z" fill="#C4C4C4"/>
<path d="M97.2092 273.294C96.2917 274.557 94.9506 275.146 94.2139 274.611C93.4773 274.076 93.6239 272.618 94.5414 271.355C95.459 270.092 99.292 266.073 100.029 266.608C100.765 267.143 98.1267 272.031 97.2092 273.294Z" fill="#C4C4C4"/>
<path d="M81.9489 260.634C80.8451 261.737 79.4283 262.11 78.7845 261.466C78.1406 260.822 78.5134 259.406 79.6172 258.302C80.721 257.198 85.1357 253.827 85.7796 254.471C86.4235 255.115 83.0527 259.53 81.9489 260.634Z" fill="#C4C4C4"/>
<path d="M68.8957 245.71C67.6328 246.627 66.1751 246.774 65.6399 246.037C65.1046 245.301 65.6945 243.96 66.9574 243.042C68.2203 242.124 73.108 239.486 73.6432 240.222C74.1784 240.959 70.1585 244.792 68.8957 245.71Z" fill="#C4C4C4"/>
<path d="M58.2159 228.709C56.825 229.417 55.3624 229.334 54.949 228.523C54.5356 227.711 55.328 226.479 56.7189 225.77C58.1097 225.062 63.35 223.22 63.7634 224.031C64.1768 224.843 59.6068 228 58.2159 228.709Z" fill="#C4C4C4"/>
<path d="M50.1553 210.364C48.6707 210.846 47.2391 210.535 46.9577 209.669C46.6763 208.803 47.6517 207.71 49.1363 207.228C50.621 206.745 56.0848 205.746 56.3662 206.612C56.6476 207.478 51.64 209.881 50.1553 210.364Z" fill="#C4C4C4"/>
<path d="M45.4292 190.865C43.8874 191.109 42.5221 190.578 42.3796 189.678C42.2372 188.779 43.3716 187.852 44.9134 187.608C46.4552 187.364 52.0081 187.232 52.1505 188.131C52.293 189.03 46.971 190.621 45.4292 190.865Z" fill="#C4C4C4"/>
<path d="M41.5335 170.924C39.5388 170.924 37.9218 169.816 37.9218 168.45C37.9218 167.085 39.5388 165.977 41.5335 165.977C43.5281 165.977 50.5625 167.085 50.5625 168.45C50.5625 169.816 43.5281 170.924 41.5335 170.924Z" fill="#C4C4C4"/>
<path d="M44.9134 151.18C43.3716 150.936 42.2372 150.009 42.3796 149.11C42.5221 148.21 43.8874 147.679 45.4292 147.923C46.971 148.168 52.293 149.758 52.1505 150.657C52.0081 151.557 46.4552 151.425 44.9134 151.18Z" fill="#C4C4C4"/>
<path d="M49.1361 132.11C47.6515 131.628 46.6761 130.535 46.9575 129.669C47.2389 128.803 48.6705 128.492 50.1551 128.974C51.6398 129.457 56.6474 131.86 56.366 132.726C56.0846 133.592 50.6207 132.593 49.1361 132.11Z" fill="#C4C4C4"/>
<path d="M56.7186 113.018C55.3277 112.309 54.5353 111.077 54.9487 110.266C55.3621 109.454 56.8248 109.371 58.2157 110.08C59.6066 110.788 64.1766 113.945 63.7632 114.757C63.3498 115.568 58.1095 113.727 56.7186 113.018Z" fill="#C4C4C4"/>
<path d="M67.1144 96.1113C65.8515 95.1938 65.2616 93.8527 65.7968 93.116C66.332 92.3794 67.7897 92.526 69.0526 93.4435C70.3155 94.3611 74.3354 98.1941 73.8002 98.9308C73.2649 99.6675 68.3772 97.0288 67.1144 96.1113Z" fill="#C4C4C4"/>
<path d="M79.7743 80.8513C78.6704 79.7475 78.2976 78.3307 78.9415 77.6868C79.5854 77.0429 81.0022 77.4157 82.106 78.5196C83.2098 79.6234 86.5806 84.0381 85.9367 84.682C85.2928 85.3259 80.8781 81.9551 79.7743 80.8513Z" fill="#C4C4C4"/>
<path d="M94.6983 67.7979C93.7808 66.535 93.6342 65.0773 94.3709 64.5421C95.1076 64.0068 96.4486 64.5967 97.3661 65.8596C98.2837 67.1225 100.922 72.0102 100.186 72.5454C99.449 73.0807 95.6159 69.0608 94.6983 67.7979Z" fill="#C4C4C4"/>
<path d="M111.335 56.9612C110.626 55.5703 110.709 54.1076 111.52 53.6942C112.332 53.2808 113.564 54.0732 114.273 55.4641C114.981 56.855 116.823 62.0953 116.012 62.5087C115.2 62.9221 112.043 58.352 111.335 56.9612Z" fill="#C4C4C4"/>
<path d="M129.68 48.9005C129.197 47.4158 129.508 45.9842 130.374 45.7028C131.24 45.4214 132.333 46.3968 132.816 47.8814C133.298 49.3661 134.297 54.8299 133.431 55.1113C132.565 55.3927 130.162 50.3851 129.68 48.9005Z" fill="#C4C4C4"/>
<path d="M148.646 44.3024C148.401 42.7606 149.054 41.376 150.103 41.2098C151.153 41.0436 152.201 42.1588 152.445 43.7006C152.69 45.2424 152.7 50.8145 151.651 50.9807C150.602 51.1469 148.89 45.8442 148.646 44.3024Z" fill="#C4C4C4"/>
<path d="M167.64 40.3638C167.64 38.3691 168.747 36.7522 170.113 36.7522C171.479 36.7522 172.586 38.3691 172.586 40.3638C172.586 42.3584 171.479 49.3928 170.113 49.3928C168.747 49.3928 167.64 42.3584 167.64 40.3638Z" fill="#FEE6A6"/>
<path d="M188.33 43.7006C188.574 42.1588 189.623 41.0436 190.672 41.2098C191.721 41.376 192.374 42.7606 192.13 44.3024C191.885 45.8442 190.174 51.1469 189.124 50.9807C188.075 50.8145 188.086 45.2424 188.33 43.7006Z" fill="#FEE6A6"/>
<path d="M207.41 47.8815C207.892 46.3968 209.102 45.4594 210.113 45.7877C211.123 46.116 211.551 47.5857 211.069 49.0703C210.586 50.5549 208.066 55.5245 207.056 55.1962C206.045 54.8679 206.928 49.3661 207.41 47.8815Z" fill="#FEE6A6"/>
<path d="M226.519 55.4242C227.228 54.0333 228.569 53.2968 229.516 53.7791C230.463 54.2614 230.655 55.7799 229.947 57.1708C229.238 58.5616 225.971 63.0758 225.025 62.5935C224.078 62.1112 225.81 56.8151 226.519 55.4242Z" fill="#FEE6A6"/>
<path d="M243.448 65.783C244.366 64.5201 245.806 64.0025 246.666 64.627C247.525 65.2514 247.478 66.7814 246.561 68.0443C245.643 69.3072 241.71 73.2548 240.851 72.6303C239.992 72.0059 242.531 67.0459 243.448 65.783Z" fill="#FEE6A6"/>
<path d="M259.285 78.4102C260.389 77.3064 261.893 77.0205 262.644 77.7717C263.395 78.5229 263.11 80.0267 262.006 81.1305C260.902 82.2343 256.4 85.5181 255.649 84.7669C254.898 84.0157 258.182 79.514 259.285 78.4102Z" fill="#FEE6A6"/>
<path d="M272.372 93.3061C273.635 92.3885 275.165 92.3415 275.789 93.2009C276.414 94.0604 275.896 95.5009 274.633 96.4185C273.37 97.336 268.41 99.8752 267.786 99.0157C267.161 98.1562 271.109 94.2236 272.372 93.3061Z" fill="#FEE6A6"/>
<path d="M283.245 109.92C284.636 109.211 286.155 109.404 286.637 110.351C287.119 111.297 286.383 112.639 284.992 113.348C283.601 114.056 278.305 115.788 277.823 114.842C277.34 113.895 281.854 110.629 283.245 109.92Z" fill="#FEE6A6"/>
<path d="M290.796 128.798C292.281 128.315 293.75 128.743 294.079 129.754C294.407 130.764 293.47 131.974 291.985 132.457C290.5 132.939 284.999 133.821 284.67 132.811C284.342 131.8 289.312 129.28 290.796 128.798Z" fill="#FEE6A6"/>
<path d="M295.564 147.737C297.106 147.493 298.49 148.145 298.656 149.195C298.823 150.244 297.708 151.292 296.166 151.537C294.624 151.781 289.052 151.791 288.886 150.742C288.719 149.693 294.022 147.981 295.564 147.737Z" fill="#FEE6A6"/>
<path d="M298.64 165.428C300.635 165.428 302.252 166.535 302.252 167.901C302.252 169.267 300.635 170.374 298.64 170.374C296.646 170.374 289.611 169.267 289.611 167.901C289.611 166.535 296.646 165.428 298.64 165.428Z" fill="#FEE6A6"/>
<path d="M296.715 187.421C298.257 187.666 299.372 188.714 299.206 189.763C299.04 190.813 297.655 191.465 296.113 191.221C294.572 190.977 289.269 189.265 289.435 188.216C289.601 187.167 295.174 187.177 296.715 187.421Z" fill="#FEE6A6"/>
<path d="M291.985 207.051C293.469 207.533 294.407 208.743 294.079 209.754C293.75 210.764 292.281 211.192 290.796 210.71C289.311 210.227 284.342 207.707 284.67 206.697C284.998 205.686 290.5 206.569 291.985 207.051Z" fill="#FEE6A6"/>
<path d="M284.992 225.61C286.383 226.319 287.119 227.661 286.637 228.608C286.155 229.554 284.636 229.747 283.245 229.038C281.854 228.33 277.34 225.063 277.823 224.116C278.305 223.17 283.601 224.902 284.992 225.61Z" fill="#FEE6A6"/>
<path d="M274.633 242.54C275.896 243.457 276.413 244.898 275.789 245.757C275.164 246.617 273.634 246.569 272.371 245.652C271.109 244.734 267.161 240.802 267.785 239.942C268.41 239.083 273.37 241.622 274.633 242.54Z" fill="#FEE6A6"/>
<path d="M262.006 257.828C263.11 258.931 263.395 260.435 262.644 261.186C261.893 261.938 260.389 261.652 259.285 260.548C258.182 259.444 254.898 254.942 255.649 254.191C256.4 253.44 260.902 256.724 262.006 257.828Z" fill="#FEE6A6"/>
<path d="M247.11 270.914C248.027 272.177 248.074 273.707 247.215 274.331C246.356 274.956 244.915 274.438 243.997 273.175C243.08 271.912 240.541 266.952 241.4 266.328C242.26 265.703 246.192 269.651 247.11 270.914Z" fill="#FEE6A6"/>
<path d="M229.946 282.337C230.655 283.728 230.462 285.246 229.516 285.729C228.569 286.211 227.227 285.474 226.519 284.083C225.81 282.693 224.078 277.396 225.024 276.914C225.971 276.432 229.238 280.946 229.946 282.337Z" fill="#FEE6A6"/>
<path d="M211.618 289.888C212.1 291.372 211.672 292.842 210.662 293.17C209.652 293.499 208.442 292.561 207.959 291.077C207.477 289.592 206.595 284.09 207.605 283.762C208.615 283.433 211.136 288.403 211.618 289.888Z" fill="#FEE6A6"/>
<path d="M192.13 294.656C192.374 296.198 191.721 297.582 190.672 297.748C189.623 297.914 188.574 296.799 188.33 295.258C188.086 293.716 188.075 288.144 189.124 287.977C190.174 287.811 191.885 293.114 192.13 294.656Z" fill="#FEE6A6"/>
<defs>
<filter id="filter0_i" x="0" y="0" width="338" height="342" filterUnits="userSpaceOnUse" color-interpolation-filters="sRGB">
<feFlood flood-opacity="0" result="BackgroundImageFix"/>
<feBlend mode="normal" in="SourceGraphic" in2="BackgroundImageFix" result="shape"/>
<feColorMatrix in="SourceAlpha" type="matrix" values="0 0 0 0 0 0 0 0 0 0 0 0 0 0 0 0 0 0 127 0" result="hardAlpha"/>
<feOffset dy="8"/>
<feGaussianBlur stdDeviation="2"/>
<feComposite in2="hardAlpha" operator="arithmetic" k2="-1" k3="1"/>
<feColorMatrix type="matrix" values="0 0 0 0 0 0 0 0 0 0 0 0 0 0 0 0 0 0 0.25 0"/>
<feBlend mode="normal" in2="shape" result="effect1_innerShadow"/>
</filter>
<filter id="filter1_d" x="29.075" y="33.5251" width="280.4" height="280.4" filterUnits="userSpaceOnUse" color-interpolation-filters="sRGB">
<feFlood flood-opacity="0" result="BackgroundImageFix"/>
<feColorMatrix in="SourceAlpha" type="matrix" values="0 0 0 0 0 0 0 0 0 0 0 0 0 0 0 0 0 0 127 0"/>
<feMorphology radius="1" operator="dilate" in="SourceAlpha" result="effect1_dropShadow"/>
<feOffset dy="5"/>
<feGaussianBlur stdDeviation="2"/>
<feColorMatrix type="matrix" values="0 0 0 0 0 0 0 0 0 0 0 0 0 0 0 0 0 0 0.25 0"/>
<feBlend mode="normal" in2="BackgroundImageFix" result="effect1_dropShadow"/>
<feBlend mode="normal" in="SourceGraphic" in2="effect1_dropShadow" result="shape"/>
</filter>
<filter id="filter2_d" x="70.1707" y="69.9968" width="205.457" height="205.457" filterUnits="userSpaceOnUse" color-interpolation-filters="sRGB">
<feFlood flood-opacity="0" result="BackgroundImageFix"/>
<feColorMatrix in="SourceAlpha" type="matrix" values="0 0 0 0 0 0 0 0 0 0 0 0 0 0 0 0 0 0 127 0"/>
<feMorphology radius="1" operator="dilate" in="SourceAlpha" result="effect1_dropShadow"/>
<feOffset dx="2" dy="4"/>
<feGaussianBlur stdDeviation="2.5"/>
<feColorMatrix type="matrix" values="0 0 0 0 0 0 0 0 0 0 0 0 0 0 0 0 0 0 0.25 0"/>
<feBlend mode="normal" in2="BackgroundImageFix" result="effect1_dropShadow"/>
<feBlend mode="normal" in="SourceGraphic" in2="effect1_dropShadow" result="shape"/>
</filter>
</defs>
</svg>
