<svg width="482" height="100" viewBox="0 0 482 100" fill="none" xmlns="http://www.w3.org/2000/svg">
<g filter="url(#filter0_i)">
<circle cx="38.5" cy="27.5" r="26.5" fill="white"/>
<circle cx="338.5" cy="26.5" r="26.5" fill="white"/>
<circle cx="443.5" cy="26.5" r="26.5" fill="white"/>
<line x1="64" y1="27" x2="314" y2="27" stroke="white" stroke-width="10"/>
<line x1="362" y1="27" x2="422" y2="27" stroke="white" stroke-width="10"/>
</g>
<g filter="url(#filter1_d)">
<path d="M28.7924 63.7598C28.8857 63.5198 29.019 63.3398 29.1924 63.2198C29.379 63.0998 29.579 63.0398 29.7924 63.0398C30.099 63.0398 30.3724 63.1465 30.6124 63.3598C30.8657 63.5598 30.9924 63.8131 30.9924 64.1198C30.9924 64.2931 30.959 64.4465 30.8924 64.5798L27.5924 72.3198C27.4857 72.5731 27.319 72.7665 27.0924 72.8998C26.879 73.0331 26.639 73.0998 26.3724 73.0998C26.119 73.0998 25.879 73.0331 25.6524 72.8998C25.439 72.7665 25.279 72.5731 25.1724 72.3198L22.7924 66.5998L20.4924 72.3198C20.3857 72.5731 20.219 72.7665 19.9924 72.8998C19.779 73.0331 19.539 73.0998 19.2724 73.0998C19.019 73.0998 18.779 73.0331 18.5524 72.8998C18.3257 72.7665 18.159 72.5731 18.0524 72.3198L14.7724 64.5798C14.7057 64.4065 14.6724 64.2598 14.6724 64.1398C14.6724 63.8331 14.8057 63.5731 15.0724 63.3598C15.339 63.1331 15.6324 63.0198 15.9524 63.0198C16.179 63.0198 16.3857 63.0798 16.5724 63.1998C16.759 63.3198 16.899 63.4998 16.9924 63.7398L19.3524 69.8398L21.7724 63.7998C21.879 63.5465 22.0324 63.3598 22.2324 63.2398C22.4324 63.1065 22.6524 63.0398 22.8924 63.0398C23.1324 63.0398 23.3524 63.1065 23.5524 63.2398C23.7524 63.3598 23.9057 63.5465 24.0124 63.7998L26.4524 69.8598L28.7924 63.7598ZM37.205 73.1598C36.205 73.1598 35.325 72.9531 34.565 72.5398C33.8184 72.1265 33.2384 71.5331 32.825 70.7598C32.4117 69.9865 32.205 69.0865 32.205 68.0598C32.205 67.0331 32.4117 66.1398 32.825 65.3798C33.2384 64.6065 33.8184 64.0131 34.565 63.5998C35.325 63.1865 36.205 62.9798 37.205 62.9798C38.205 62.9798 39.0784 63.1865 39.825 63.5998C40.585 64.0131 41.165 64.6065 41.565 65.3798C41.9784 66.1398 42.185 67.0331 42.185 68.0598C42.185 69.0865 41.9784 69.9865 41.565 70.7598C41.165 71.5331 40.585 72.1265 39.825 72.5398C39.0784 72.9531 38.205 73.1598 37.205 73.1598ZM37.185 71.2198C37.9984 71.2198 38.6184 70.9531 39.045 70.4198C39.4717 69.8865 39.685 69.0998 39.685 68.0598C39.685 67.0331 39.4717 66.2531 39.045 65.7198C38.6184 65.1731 38.005 64.8998 37.205 64.8998C36.405 64.8998 35.785 65.1731 35.345 65.7198C34.9184 66.2531 34.705 67.0331 34.705 68.0598C34.705 69.0998 34.9184 69.8865 35.345 70.4198C35.7717 70.9531 36.385 71.2198 37.185 71.2198ZM49.9089 63.0198C50.2556 62.9931 50.5289 63.0665 50.7289 63.2398C50.9289 63.4131 51.0289 63.6731 51.0289 64.0198C51.0289 64.3798 50.9423 64.6465 50.7689 64.8198C50.5956 64.9931 50.2823 65.1065 49.8289 65.1598L49.2289 65.2198C48.4423 65.2998 47.8623 65.5665 47.4889 66.0198C47.1289 66.4731 46.9489 67.0398 46.9489 67.7198V71.9198C46.9489 72.3065 46.8289 72.6065 46.5889 72.8198C46.3489 73.0198 46.0489 73.1198 45.6889 73.1198C45.3289 73.1198 45.0289 73.0198 44.7889 72.8198C44.5623 72.6065 44.4489 72.3065 44.4489 71.9198V64.1798C44.4489 63.8065 44.5623 63.5198 44.7889 63.3198C45.0289 63.1198 45.3223 63.0198 45.6689 63.0198C46.0156 63.0198 46.2956 63.1198 46.5089 63.3198C46.7223 63.5065 46.8289 63.7798 46.8289 64.1398V64.9398C47.0823 64.3531 47.4556 63.8998 47.9489 63.5798C48.4556 63.2598 49.0156 63.0798 49.6289 63.0398L49.9089 63.0198ZM61.0052 71.0598C61.2718 71.3131 61.4052 71.5998 61.4052 71.9198C61.4052 72.2265 61.2918 72.4998 61.0652 72.7398C60.8518 72.9798 60.5985 73.0998 60.3052 73.0998C60.0118 73.0998 59.7385 72.9798 59.4852 72.7398L54.8052 68.4998V71.9198C54.8052 72.3065 54.6852 72.5998 54.4452 72.7998C54.2052 72.9998 53.9052 73.0998 53.5452 73.0998C53.1852 73.0998 52.8852 72.9998 52.6452 72.7998C52.4185 72.5998 52.3052 72.3065 52.3052 71.9198V59.9798C52.3052 59.5931 52.4185 59.2998 52.6452 59.0998C52.8852 58.8998 53.1852 58.7998 53.5452 58.7998C53.9052 58.7998 54.2052 58.8998 54.4452 59.0998C54.6852 59.2998 54.8052 59.5931 54.8052 59.9798V67.4998L59.0852 63.3998C59.3252 63.1598 59.5985 63.0398 59.9052 63.0398C60.2118 63.0398 60.4785 63.1531 60.7052 63.3798C60.9318 63.6065 61.0452 63.8731 61.0452 64.1798C61.0452 64.4865 60.9185 64.7665 60.6652 65.0198L57.5252 67.9398L61.0052 71.0598Z" fill="white"/>
</g>
<g filter="url(#filter2_d)">
<path d="M320.945 73.1198C320.585 73.1198 320.285 73.0198 320.045 72.8198C319.818 72.6065 319.705 72.3065 319.705 71.9198V59.9798C319.705 59.5931 319.818 59.2998 320.045 59.0998C320.285 58.8998 320.585 58.7998 320.945 58.7998C321.305 58.7998 321.605 58.8998 321.845 59.0998C322.085 59.2998 322.205 59.5931 322.205 59.9798V71.9198C322.205 72.3065 322.085 72.6065 321.845 72.8198C321.605 73.0198 321.305 73.1198 320.945 73.1198ZM329.443 73.1598C328.443 73.1598 327.563 72.9531 326.803 72.5398C326.056 72.1265 325.476 71.5331 325.063 70.7598C324.649 69.9865 324.443 69.0865 324.443 68.0598C324.443 67.0331 324.649 66.1398 325.063 65.3798C325.476 64.6065 326.056 64.0131 326.803 63.5998C327.563 63.1865 328.443 62.9798 329.443 62.9798C330.443 62.9798 331.316 63.1865 332.063 63.5998C332.823 64.0131 333.403 64.6065 333.803 65.3798C334.216 66.1398 334.423 67.0331 334.423 68.0598C334.423 69.0865 334.216 69.9865 333.803 70.7598C333.403 71.5331 332.823 72.1265 332.063 72.5398C331.316 72.9531 330.443 73.1598 329.443 73.1598ZM329.423 71.2198C330.236 71.2198 330.856 70.9531 331.283 70.4198C331.709 69.8865 331.923 69.0998 331.923 68.0598C331.923 67.0331 331.709 66.2531 331.283 65.7198C330.856 65.1731 330.243 64.8998 329.443 64.8998C328.643 64.8998 328.023 65.1731 327.583 65.7198C327.156 66.2531 326.943 67.0331 326.943 68.0598C326.943 69.0998 327.156 69.8865 327.583 70.4198C328.009 70.9531 328.623 71.2198 329.423 71.2198ZM342.367 62.9798C343.54 62.9798 344.413 63.3131 344.987 63.9798C345.56 64.6465 345.847 65.6531 345.847 66.9998V71.9198C345.847 72.2931 345.733 72.5865 345.507 72.7998C345.293 73.0131 344.993 73.1198 344.607 73.1198C344.22 73.1198 343.913 73.0131 343.687 72.7998C343.46 72.5865 343.347 72.2931 343.347 71.9198V67.1398C343.347 66.3798 343.2 65.8265 342.907 65.4798C342.627 65.1331 342.18 64.9598 341.567 64.9598C340.847 64.9598 340.267 65.1865 339.827 65.6398C339.4 66.0931 339.187 66.6998 339.187 67.4598V71.9198C339.187 72.2931 339.073 72.5865 338.847 72.7998C338.62 73.0131 338.313 73.1198 337.927 73.1198C337.54 73.1198 337.233 73.0131 337.007 72.7998C336.793 72.5865 336.687 72.2931 336.687 71.9198V64.1798C336.687 63.8331 336.8 63.5531 337.027 63.3398C337.253 63.1265 337.56 63.0198 337.947 63.0198C338.293 63.0198 338.573 63.1265 338.787 63.3398C339.013 63.5398 339.127 63.8065 339.127 64.1398V64.6798C339.46 64.1331 339.907 63.7131 340.467 63.4198C341.027 63.1265 341.66 62.9798 342.367 62.9798ZM356.866 63.0198C357.239 63.0198 357.539 63.1265 357.766 63.3398C357.993 63.5531 358.106 63.8398 358.106 64.1998V72.0998C358.106 73.6331 357.679 74.7931 356.826 75.5798C355.973 76.3665 354.713 76.7598 353.046 76.7598C351.593 76.7598 350.379 76.4865 349.406 75.9398C348.913 75.6465 348.666 75.2931 348.666 74.8798C348.666 74.5865 348.733 74.3531 348.866 74.1798C349.013 74.0065 349.199 73.9198 349.426 73.9198C349.546 73.9198 349.693 73.9465 349.866 73.9998C350.039 74.0665 350.219 74.1398 350.406 74.2198C350.886 74.4198 351.313 74.5731 351.686 74.6798C352.073 74.7865 352.513 74.8398 353.006 74.8398C354.753 74.8398 355.626 73.9865 355.626 72.2798V70.9998C355.333 71.5465 354.906 71.9731 354.346 72.2798C353.786 72.5731 353.146 72.7198 352.426 72.7198C351.573 72.7198 350.813 72.5198 350.146 72.1198C349.493 71.7065 348.979 71.1331 348.606 70.3998C348.233 69.6665 348.046 68.8198 348.046 67.8598C348.046 66.8998 348.226 66.0531 348.586 65.3198C348.959 64.5731 349.479 63.9998 350.146 63.5998C350.813 63.1865 351.573 62.9798 352.426 62.9798C353.146 62.9798 353.786 63.1331 354.346 63.4398C354.906 63.7331 355.333 64.1531 355.626 64.6998V64.1798C355.626 63.8331 355.739 63.5531 355.966 63.3398C356.193 63.1265 356.493 63.0198 356.866 63.0198ZM353.086 70.7798C353.886 70.7798 354.506 70.5198 354.946 69.9998C355.399 69.4798 355.626 68.7665 355.626 67.8598C355.626 66.9398 355.399 66.2198 354.946 65.6998C354.506 65.1798 353.886 64.9198 353.086 64.9198C352.299 64.9198 351.679 65.1798 351.226 65.6998C350.773 66.2198 350.546 66.9398 350.546 67.8598C350.546 68.7665 350.773 69.4798 351.226 69.9998C351.679 70.5198 352.299 70.7798 353.086 70.7798ZM319.709 82.9798C320.563 82.9798 321.316 83.1865 321.969 83.5998C322.623 84.0131 323.129 84.5998 323.489 85.3598C323.863 86.1198 324.049 87.0065 324.049 88.0198C324.049 89.0331 323.863 89.9331 323.489 90.7198C323.129 91.4931 322.616 92.0931 321.949 92.5198C321.296 92.9465 320.549 93.1598 319.709 93.1598C319.003 93.1598 318.369 93.0065 317.809 92.6998C317.263 92.3931 316.843 91.9665 316.549 91.4198V91.9198C316.549 92.2798 316.436 92.5665 316.209 92.7798C315.983 92.9931 315.683 93.0998 315.309 93.0998C314.936 93.0998 314.636 92.9931 314.409 92.7798C314.196 92.5665 314.089 92.2798 314.089 91.9198V79.9598C314.089 79.6131 314.203 79.3331 314.429 79.1198C314.669 78.9065 314.976 78.7998 315.349 78.7998C315.723 78.7998 316.023 78.8998 316.249 79.0998C316.476 79.2998 316.589 79.5731 316.589 79.9198V84.6398C316.883 84.1065 317.303 83.6998 317.849 83.4198C318.396 83.1265 319.016 82.9798 319.709 82.9798ZM319.049 91.2198C319.836 91.2198 320.449 90.9398 320.889 90.3798C321.329 89.8198 321.549 89.0331 321.549 88.0198C321.549 87.0198 321.329 86.2531 320.889 85.7198C320.463 85.1865 319.849 84.9198 319.049 84.9198C318.249 84.9198 317.629 85.1931 317.189 85.7398C316.763 86.2731 316.549 87.0465 316.549 88.0598C316.549 89.0731 316.763 89.8531 317.189 90.3998C317.629 90.9465 318.249 91.2198 319.049 91.2198ZM331.761 83.0198C332.108 82.9931 332.381 83.0665 332.581 83.2398C332.781 83.4131 332.881 83.6731 332.881 84.0198C332.881 84.3798 332.795 84.6465 332.621 84.8198C332.448 84.9931 332.135 85.1065 331.681 85.1598L331.081 85.2198C330.295 85.2998 329.715 85.5665 329.341 86.0198C328.981 86.4731 328.801 87.0398 328.801 87.7198V91.9198C328.801 92.3065 328.681 92.6065 328.441 92.8198C328.201 93.0198 327.901 93.1198 327.541 93.1198C327.181 93.1198 326.881 93.0198 326.641 92.8198C326.415 92.6065 326.301 92.3065 326.301 91.9198V84.1798C326.301 83.8065 326.415 83.5198 326.641 83.3198C326.881 83.1198 327.175 83.0198 327.521 83.0198C327.868 83.0198 328.148 83.1198 328.361 83.3198C328.575 83.5065 328.681 83.7798 328.681 84.1398V84.9398C328.935 84.3531 329.308 83.8998 329.801 83.5798C330.308 83.2598 330.868 83.0798 331.481 83.0398L331.761 83.0198ZM341.702 90.3198C341.929 90.3198 342.109 90.4065 342.242 90.5798C342.389 90.7531 342.462 90.9865 342.462 91.2798C342.462 91.6931 342.215 92.0398 341.722 92.3198C341.269 92.5731 340.755 92.7798 340.182 92.9398C339.609 93.0865 339.062 93.1598 338.542 93.1598C336.969 93.1598 335.722 92.7065 334.802 91.7998C333.882 90.8931 333.422 89.6531 333.422 88.0798C333.422 87.0798 333.622 86.1931 334.022 85.4198C334.422 84.6465 334.982 84.0465 335.702 83.6198C336.435 83.1931 337.262 82.9798 338.182 82.9798C339.062 82.9798 339.829 83.1731 340.482 83.5598C341.135 83.9465 341.642 84.4931 342.002 85.1998C342.362 85.9065 342.542 86.7398 342.542 87.6998C342.542 88.2731 342.289 88.5598 341.782 88.5598H335.882C335.962 89.4798 336.222 90.1598 336.662 90.5998C337.102 91.0265 337.742 91.2398 338.582 91.2398C339.009 91.2398 339.382 91.1865 339.702 91.0798C340.035 90.9731 340.409 90.8265 340.822 90.6398C341.222 90.4265 341.515 90.3198 341.702 90.3198ZM338.242 84.7398C337.562 84.7398 337.015 84.9531 336.602 85.3798C336.202 85.8065 335.962 86.4198 335.882 87.2198H340.402C340.375 86.4065 340.175 85.7931 339.802 85.3798C339.429 84.9531 338.909 84.7398 338.242 84.7398ZM349.027 82.9798C350.387 82.9798 351.394 83.3198 352.047 83.9998C352.714 84.6665 353.047 85.6865 353.047 87.0598V91.9398C353.047 92.2998 352.94 92.5865 352.727 92.7998C352.514 92.9998 352.22 93.0998 351.847 93.0998C351.5 93.0998 351.214 92.9931 350.987 92.7798C350.774 92.5665 350.667 92.2865 350.667 91.9398V91.4998C350.44 92.0198 350.08 92.4265 349.587 92.7198C349.107 93.0131 348.547 93.1598 347.907 93.1598C347.254 93.1598 346.66 93.0265 346.127 92.7598C345.594 92.4931 345.174 92.1265 344.867 91.6598C344.56 91.1931 344.407 90.6731 344.407 90.0998C344.407 89.3798 344.587 88.8131 344.947 88.3998C345.32 87.9865 345.92 87.6865 346.747 87.4998C347.574 87.3131 348.714 87.2198 350.167 87.2198H350.667V86.7598C350.667 86.1065 350.527 85.6331 350.247 85.3398C349.967 85.0331 349.514 84.8798 348.887 84.8798C348.5 84.8798 348.107 84.9398 347.707 85.0598C347.307 85.1665 346.834 85.3265 346.287 85.5398C345.94 85.7131 345.687 85.7998 345.527 85.7998C345.287 85.7998 345.087 85.7131 344.927 85.5398C344.78 85.3665 344.707 85.1398 344.707 84.8598C344.707 84.6331 344.76 84.4398 344.867 84.2798C344.987 84.1065 345.18 83.9465 345.447 83.7998C345.914 83.5465 346.467 83.3465 347.107 83.1998C347.76 83.0531 348.4 82.9798 349.027 82.9798ZM348.407 91.3598C349.074 91.3598 349.614 91.1398 350.027 90.6998C350.454 90.2465 350.667 89.6665 350.667 88.9598V88.5398H350.307C349.414 88.5398 348.72 88.5798 348.227 88.6598C347.734 88.7398 347.38 88.8798 347.167 89.0798C346.954 89.2798 346.847 89.5531 346.847 89.8998C346.847 90.3265 346.994 90.6798 347.287 90.9598C347.594 91.2265 347.967 91.3598 348.407 91.3598ZM364.488 91.0598C364.755 91.3131 364.888 91.5998 364.888 91.9198C364.888 92.2265 364.775 92.4998 364.548 92.7398C364.335 92.9798 364.081 93.0998 363.788 93.0998C363.495 93.0998 363.221 92.9798 362.968 92.7398L358.288 88.4998V91.9198C358.288 92.3065 358.168 92.5998 357.928 92.7998C357.688 92.9998 357.388 93.0998 357.028 93.0998C356.668 93.0998 356.368 92.9998 356.128 92.7998C355.901 92.5998 355.788 92.3065 355.788 91.9198V79.9798C355.788 79.5931 355.901 79.2998 356.128 79.0998C356.368 78.8998 356.668 78.7998 357.028 78.7998C357.388 78.7998 357.688 78.8998 357.928 79.0998C358.168 79.2998 358.288 79.5931 358.288 79.9798V87.4998L362.568 83.3998C362.808 83.1598 363.081 83.0398 363.388 83.0398C363.695 83.0398 363.961 83.1531 364.188 83.3798C364.415 83.6065 364.528 83.8731 364.528 84.1798C364.528 84.4865 364.401 84.7665 364.148 85.0198L361.008 87.9398L364.488 91.0598Z" fill="white"/>
</g>
<g filter="url(#filter3_d)">
<path d="M427.992 64.9798C429.165 64.9798 430.039 65.3131 430.612 65.9798C431.185 66.6465 431.472 67.6531 431.472 68.9998V73.9198C431.472 74.2931 431.359 74.5865 431.132 74.7998C430.919 75.0131 430.619 75.1198 430.232 75.1198C429.845 75.1198 429.539 75.0131 429.312 74.7998C429.085 74.5865 428.972 74.2931 428.972 73.9198V69.1398C428.972 68.3798 428.825 67.8265 428.532 67.4798C428.252 67.1331 427.805 66.9598 427.192 66.9598C426.472 66.9598 425.892 67.1865 425.452 67.6398C425.025 68.0931 424.812 68.6998 424.812 69.4598V73.9198C424.812 74.2931 424.699 74.5865 424.472 74.7998C424.245 75.0131 423.939 75.1198 423.552 75.1198C423.165 75.1198 422.859 75.0131 422.632 74.7998C422.419 74.5865 422.312 74.2931 422.312 73.9198V66.1798C422.312 65.8331 422.425 65.5531 422.652 65.3398C422.879 65.1265 423.185 65.0198 423.572 65.0198C423.919 65.0198 424.199 65.1265 424.412 65.3398C424.639 65.5398 424.752 65.8065 424.752 66.1398V66.6798C425.085 66.1331 425.532 65.7131 426.092 65.4198C426.652 65.1265 427.285 64.9798 427.992 64.9798ZM441.951 72.3198C442.178 72.3198 442.358 72.4065 442.491 72.5798C442.638 72.7531 442.711 72.9865 442.711 73.2798C442.711 73.6931 442.465 74.0398 441.971 74.3198C441.518 74.5731 441.005 74.7798 440.431 74.9398C439.858 75.0865 439.311 75.1598 438.791 75.1598C437.218 75.1598 435.971 74.7065 435.051 73.7998C434.131 72.8931 433.671 71.6531 433.671 70.0798C433.671 69.0798 433.871 68.1931 434.271 67.4198C434.671 66.6465 435.231 66.0465 435.951 65.6198C436.685 65.1931 437.511 64.9798 438.431 64.9798C439.311 64.9798 440.078 65.1731 440.731 65.5598C441.385 65.9465 441.891 66.4931 442.251 67.1998C442.611 67.9065 442.791 68.7398 442.791 69.6998C442.791 70.2731 442.538 70.5598 442.031 70.5598H436.131C436.211 71.4798 436.471 72.1598 436.911 72.5998C437.351 73.0265 437.991 73.2398 438.831 73.2398C439.258 73.2398 439.631 73.1865 439.951 73.0798C440.285 72.9731 440.658 72.8265 441.071 72.6398C441.471 72.4265 441.765 72.3198 441.951 72.3198ZM438.491 66.7398C437.811 66.7398 437.265 66.9531 436.851 67.3798C436.451 67.8065 436.211 68.4198 436.131 69.2198H440.651C440.625 68.4065 440.425 67.7931 440.051 67.3798C439.678 66.9531 439.158 66.7398 438.491 66.7398ZM453.321 73.1598C453.561 73.3998 453.681 73.6731 453.681 73.9798C453.681 74.2731 453.568 74.5398 453.341 74.7798C453.114 75.0065 452.848 75.1198 452.541 75.1198C452.208 75.1198 451.921 74.9798 451.681 74.6998L448.861 71.5798L446.041 74.6998C445.788 74.9665 445.501 75.0998 445.181 75.0998C444.888 75.0998 444.628 74.9865 444.401 74.7598C444.174 74.5331 444.061 74.2731 444.061 73.9798C444.061 73.6731 444.181 73.3998 444.421 73.1598L447.341 69.9798L444.581 66.9798C444.341 66.7398 444.221 66.4665 444.221 66.1598C444.221 65.8531 444.334 65.5931 444.561 65.3798C444.788 65.1531 445.048 65.0398 445.341 65.0398C445.661 65.0398 445.948 65.1731 446.201 65.4398L448.861 68.3598L451.521 65.4398C451.774 65.1731 452.061 65.0398 452.381 65.0398C452.688 65.0398 452.948 65.1531 453.161 65.3798C453.388 65.5931 453.501 65.8531 453.501 66.1598C453.501 66.4665 453.381 66.7398 453.141 66.9798L450.381 69.9798L453.321 73.1598ZM460.766 73.2598C461.432 73.2998 461.766 73.5998 461.766 74.1598C461.766 74.4798 461.632 74.7265 461.366 74.8998C461.112 75.0598 460.746 75.1265 460.266 75.0998L459.726 75.0598C457.486 74.8998 456.366 73.6998 456.366 71.4598V67.0998H455.366C455.006 67.0998 454.726 67.0198 454.526 66.8598C454.339 66.6998 454.246 66.4665 454.246 66.1598C454.246 65.8531 454.339 65.6198 454.526 65.4598C454.726 65.2998 455.006 65.2198 455.366 65.2198H456.366V63.3798C456.366 63.0198 456.479 62.7331 456.706 62.5198C456.932 62.3065 457.239 62.1998 457.626 62.1998C457.999 62.1998 458.299 62.3065 458.526 62.5198C458.752 62.7331 458.866 63.0198 458.866 63.3798V65.2198H460.566C460.926 65.2198 461.199 65.2998 461.386 65.4598C461.586 65.6198 461.686 65.8531 461.686 66.1598C461.686 66.4665 461.586 66.6998 461.386 66.8598C461.199 67.0198 460.926 67.0998 460.566 67.0998H458.866V71.6398C458.866 72.6265 459.319 73.1531 460.226 73.2198L460.766 73.2598ZM464.507 70.9198C464.307 70.9198 464.134 70.8531 463.987 70.7198C463.854 70.5865 463.774 70.3931 463.747 70.1398L463.007 62.3598L462.987 62.1598C462.987 61.7465 463.127 61.4198 463.407 61.1798C463.7 60.9265 464.067 60.7998 464.507 60.7998C464.974 60.7998 465.354 60.9465 465.647 61.2398C465.94 61.5198 466.06 61.8998 466.007 62.3798L465.267 70.1398C465.24 70.3931 465.154 70.5865 465.007 70.7198C464.874 70.8531 464.707 70.9198 464.507 70.9198ZM464.507 75.1198C464.08 75.1198 463.727 74.9798 463.447 74.6998C463.167 74.4065 463.027 74.0465 463.027 73.6198C463.027 73.1931 463.167 72.8398 463.447 72.5598C463.727 72.2665 464.08 72.1198 464.507 72.1198C464.934 72.1198 465.287 72.2665 465.567 72.5598C465.847 72.8398 465.987 73.1931 465.987 73.6198C465.987 74.0465 465.847 74.4065 465.567 74.6998C465.287 74.9798 464.934 75.1198 464.507 75.1198Z" fill="white"/>
</g>
<defs>
<filter id="filter0_i" x="12" y="0" width="458" height="58" filterUnits="userSpaceOnUse" color-interpolation-filters="sRGB">
<feFlood flood-opacity="0" result="BackgroundImageFix"/>
<feBlend mode="normal" in="SourceGraphic" in2="BackgroundImageFix" result="shape"/>
<feColorMatrix in="SourceAlpha" type="matrix" values="0 0 0 0 0 0 0 0 0 0 0 0 0 0 0 0 0 0 127 0" result="hardAlpha"/>
<feOffset dy="4"/>
<feGaussianBlur stdDeviation="2"/>
<feComposite in2="hardAlpha" operator="arithmetic" k2="-1" k3="1"/>
<feColorMatrix type="matrix" values="0 0 0 0 0 0 0 0 0 0 0 0 0 0 0 0 0 0 0.25 0"/>
<feBlend mode="normal" in2="shape" result="effect1_innerShadow"/>
</filter>
<filter id="filter1_d" x="10.6724" y="56.8" width="54.7328" height="22.36" filterUnits="userSpaceOnUse" color-interpolation-filters="sRGB">
<feFlood flood-opacity="0" result="BackgroundImageFix"/>
<feColorMatrix in="SourceAlpha" type="matrix" values="0 0 0 0 0 0 0 0 0 0 0 0 0 0 0 0 0 0 127 0"/>
<feOffset dy="4"/>
<feGaussianBlur stdDeviation="2"/>
<feColorMatrix type="matrix" values="0 0 0 0 0 0 0 0 0 0 0 0 0 0 0 0 0 0 0.25 0"/>
<feBlend mode="normal" in2="BackgroundImageFix" result="effect1_dropShadow"/>
<feBlend mode="normal" in="SourceGraphic" in2="effect1_dropShadow" result="shape"/>
</filter>
<filter id="filter2_d" x="310.089" y="56.8" width="58.799" height="42.36" filterUnits="userSpaceOnUse" color-interpolation-filters="sRGB">
<feFlood flood-opacity="0" result="BackgroundImageFix"/>
<feColorMatrix in="SourceAlpha" type="matrix" values="0 0 0 0 0 0 0 0 0 0 0 0 0 0 0 0 0 0 127 0"/>
<feOffset dy="4"/>
<feGaussianBlur stdDeviation="2"/>
<feColorMatrix type="matrix" values="0 0 0 0 0 0 0 0 0 0 0 0 0 0 0 0 0 0 0.25 0"/>
<feBlend mode="normal" in2="BackgroundImageFix" result="effect1_dropShadow"/>
<feBlend mode="normal" in="SourceGraphic" in2="effect1_dropShadow" result="shape"/>
</filter>
<filter id="filter3_d" x="418.312" y="58.8" width="51.7072" height="22.36" filterUnits="userSpaceOnUse" color-interpolation-filters="sRGB">
<feFlood flood-opacity="0" result="BackgroundImageFix"/>
<feColorMatrix in="SourceAlpha" type="matrix" values="0 0 0 0 0 0 0 0 0 0 0 0 0 0 0 0 0 0 127 0"/>
<feOffset dy="4"/>
<feGaussianBlur stdDeviation="2"/>
<feColorMatrix type="matrix" values="0 0 0 0 0 0 0 0 0 0 0 0 0 0 0 0 0 0 0.25 0"/>
<feBlend mode="normal" in2="BackgroundImageFix" result="effect1_dropShadow"/>
<feBlend mode="normal" in="SourceGraphic" in2="effect1_dropShadow" result="shape"/>
</filter>
</defs>
</svg>
