<?xml version="1.0" encoding="UTF-8"?>
<svg fill="none" viewBox="0 0 482 100" xmlns="http://www.w3.org/2000/svg">
<g filter="url(#d)">
<circle cx="38.5" cy="27.5" r="26.5" fill="#fff"/>
<circle cx="338.5" cy="26.5" r="26.5" fill="#fff"/>
<circle cx="443.5" cy="26.5" r="26.5" fill="#fff"/>
<line x1="64" x2="314" y1="27" y2="27" stroke="#fff" stroke-width="10"/>
<line x1="362" x2="422" y1="27" y2="27" stroke="#fff" stroke-width="10"/>
</g>
<g filter="url(#c)">
<path d="m28.792 63.76c0.0933-0.24 0.2266-0.42 0.4-0.54 0.1866-0.12 0.3866-0.18 0.6-0.18 0.3066 0 0.58 0.1067 0.82 0.32 0.2533 0.2 0.38 0.4533 0.38 0.76 0 0.1733-0.0334 0.3267-0.1 0.46l-3.3 7.74c-0.1067 0.2533-0.2734 0.4467-0.5 0.58-0.2134 0.1333-0.4534 0.2-0.72 0.2-0.2534 0-0.4934-0.0667-0.72-0.2-0.2134-0.1333-0.3734-0.3267-0.48-0.58l-2.38-5.72-2.3 5.72c-0.1067 0.2533-0.2734 0.4467-0.5 0.58-0.2134 0.1333-0.4534 0.2-0.72 0.2-0.2534 0-0.4934-0.0667-0.72-0.2-0.2267-0.1333-0.3934-0.3267-0.5-0.58l-3.28-7.74c-0.0667-0.1733-0.1-0.32-0.1-0.44 0-0.3067 0.1333-0.5667 0.4-0.78 0.2666-0.2267 0.56-0.34 0.88-0.34 0.2266 0 0.4333 0.06 0.62 0.18 0.1866 0.12 0.3266 0.3 0.42 0.54l2.36 6.1 2.42-6.04c0.1066-0.2533 0.26-0.44 0.46-0.56 0.2-0.1333 0.42-0.2 0.66-0.2s0.46 0.0667 0.66 0.2c0.2 0.12 0.3533 0.3067 0.46 0.56l2.44 6.06 2.34-6.1zm8.4126 9.4c-1 0-1.88-0.2067-2.64-0.62-0.7466-0.4133-1.3266-1.0067-1.74-1.78-0.4133-0.7733-0.62-1.6733-0.62-2.7s0.2067-1.92 0.62-2.68c0.4134-0.7733 0.9934-1.3667 1.74-1.78 0.76-0.4133 1.64-0.62 2.64-0.62s1.8734 0.2067 2.62 0.62c0.76 0.4133 1.34 1.0067 1.74 1.78 0.4134 0.76 0.62 1.6533 0.62 2.68s-0.2066 1.9267-0.62 2.7c-0.4 0.7733-0.98 1.3667-1.74 1.78-0.7466 0.4133-1.62 0.62-2.62 0.62zm-0.02-1.94c0.8134 0 1.4334-0.2667 1.86-0.8 0.4267-0.5333 0.64-1.32 0.64-2.36 0-1.0267-0.2133-1.8067-0.64-2.34-0.4266-0.5467-1.04-0.82-1.84-0.82s-1.42 0.2733-1.86 0.82c-0.4266 0.5333-0.64 1.3133-0.64 2.34 0 1.04 0.2134 1.8267 0.64 2.36 0.4267 0.5333 1.04 0.8 1.84 0.8zm12.724-8.2c0.3467-0.0267 0.62 0.0467 0.82 0.22s0.3 0.4333 0.3 0.78c0 0.36-0.0866 0.6267-0.26 0.8-0.1733 0.1733-0.4866 0.2867-0.94 0.34l-0.6 0.06c-0.7866 0.08-1.3666 0.3467-1.74 0.8-0.36 0.4533-0.54 1.02-0.54 1.7v4.2c0 0.3867-0.12 0.6867-0.36 0.9-0.24 0.2-0.54 0.3-0.9 0.3s-0.66-0.1-0.9-0.3c-0.2266-0.2133-0.34-0.5133-0.34-0.9v-7.74c0-0.3733 0.1134-0.66 0.34-0.86 0.24-0.2 0.5334-0.3 0.88-0.3 0.3467 0 0.6267 0.1 0.84 0.3 0.2134 0.1867 0.32 0.46 0.32 0.82v0.8c0.2534-0.5867 0.6267-1.04 1.12-1.36 0.5067-0.32 1.0667-0.5 1.68-0.54l0.28-0.02zm11.096 8.04c0.2666 0.2533 0.4 0.54 0.4 0.86 0 0.3067-0.1134 0.58-0.34 0.82-0.2134 0.24-0.4667 0.36-0.76 0.36-0.2934 0-0.5667-0.12-0.82-0.36l-4.68-4.24v3.42c0 0.3867-0.12 0.68-0.36 0.88s-0.54 0.3-0.9 0.3-0.66-0.1-0.9-0.3c-0.2267-0.2-0.34-0.4933-0.34-0.88v-11.94c0-0.3867 0.1133-0.68 0.34-0.88 0.24-0.2 0.54-0.3 0.9-0.3s0.66 0.1 0.9 0.3 0.36 0.4933 0.36 0.88v7.52l4.28-4.1c0.24-0.24 0.5133-0.36 0.82-0.36 0.3066 0 0.5733 0.1133 0.8 0.34 0.2266 0.2267 0.34 0.4933 0.34 0.8s-0.1267 0.5867-0.38 0.84l-3.14 2.92 3.48 3.12z" fill="#fff"/>
</g>
<g filter="url(#b)">
<path d="m320.94 73.12c-0.36 0-0.66-0.1-0.9-0.3-0.227-0.2133-0.34-0.5133-0.34-0.9v-11.94c0-0.3867 0.113-0.68 0.34-0.88 0.24-0.2 0.54-0.3 0.9-0.3s0.66 0.1 0.9 0.3 0.36 0.4933 0.36 0.88v11.94c0 0.3867-0.12 0.6867-0.36 0.9-0.24 0.2-0.54 0.3-0.9 0.3zm8.498 0.04c-1 0-1.88-0.2067-2.64-0.62-0.747-0.4133-1.327-1.0067-1.74-1.78-0.414-0.7733-0.62-1.6733-0.62-2.7s0.206-1.92 0.62-2.68c0.413-0.7733 0.993-1.3667 1.74-1.78 0.76-0.4133 1.64-0.62 2.64-0.62s1.873 0.2067 2.62 0.62c0.76 0.4133 1.34 1.0067 1.74 1.78 0.413 0.76 0.62 1.6533 0.62 2.68s-0.207 1.9267-0.62 2.7c-0.4 0.7733-0.98 1.3667-1.74 1.78-0.747 0.4133-1.62 0.62-2.62 0.62zm-0.02-1.94c0.813 0 1.433-0.2667 1.86-0.8 0.426-0.5333 0.64-1.32 0.64-2.36 0-1.0267-0.214-1.8067-0.64-2.34-0.427-0.5467-1.04-0.82-1.84-0.82s-1.42 0.2733-1.86 0.82c-0.427 0.5333-0.64 1.3133-0.64 2.34 0 1.04 0.213 1.8267 0.64 2.36 0.426 0.5333 1.04 0.8 1.84 0.8zm12.944-8.24c1.173 0 2.046 0.3333 2.62 1 0.573 0.6667 0.86 1.6733 0.86 3.02v4.92c0 0.3733-0.114 0.6667-0.34 0.88-0.214 0.2133-0.514 0.32-0.9 0.32-0.387 0-0.694-0.1067-0.92-0.32-0.227-0.2133-0.34-0.5067-0.34-0.88v-4.78c0-0.76-0.147-1.3133-0.44-1.66-0.28-0.3467-0.727-0.52-1.34-0.52-0.72 0-1.3 0.2267-1.74 0.68-0.427 0.4533-0.64 1.06-0.64 1.82v4.46c0 0.3733-0.114 0.6667-0.34 0.88-0.227 0.2133-0.534 0.32-0.92 0.32-0.387 0-0.694-0.1067-0.92-0.32-0.214-0.2133-0.32-0.5067-0.32-0.88v-7.74c0-0.3467 0.113-0.6267 0.34-0.84 0.226-0.2133 0.533-0.32 0.92-0.32 0.346 0 0.626 0.1067 0.84 0.32 0.226 0.2 0.34 0.4667 0.34 0.8v0.54c0.333-0.5467 0.78-0.9667 1.34-1.26s1.193-0.44 1.9-0.44zm14.499 0.04c0.373 0 0.673 0.1067 0.9 0.32s0.34 0.5 0.34 0.86v7.9c0 1.5333-0.427 2.6933-1.28 3.48s-2.113 1.18-3.78 1.18c-1.453 0-2.667-0.2733-3.64-0.82-0.493-0.2933-0.74-0.6467-0.74-1.06 0-0.2933 0.067-0.5267 0.2-0.7 0.147-0.1733 0.333-0.26 0.56-0.26 0.12 0 0.267 0.0267 0.44 0.08 0.173 0.0667 0.353 0.14 0.54 0.22 0.48 0.2 0.907 0.3533 1.28 0.46 0.387 0.1067 0.827 0.16 1.32 0.16 1.747 0 2.62-0.8533 2.62-2.56v-1.28c-0.293 0.5467-0.72 0.9733-1.28 1.28-0.56 0.2933-1.2 0.44-1.92 0.44-0.853 0-1.613-0.2-2.28-0.6-0.653-0.4133-1.167-0.9867-1.54-1.72s-0.56-1.58-0.56-2.54 0.18-1.8067 0.54-2.54c0.373-0.7467 0.893-1.32 1.56-1.72 0.667-0.4133 1.427-0.62 2.28-0.62 0.72 0 1.36 0.1533 1.92 0.46 0.56 0.2933 0.987 0.7133 1.28 1.26v-0.52c0-0.3467 0.113-0.6267 0.34-0.84s0.527-0.32 0.9-0.32zm-3.78 7.76c0.8 0 1.42-0.26 1.86-0.78 0.453-0.52 0.68-1.2333 0.68-2.14 0-0.92-0.227-1.64-0.68-2.16-0.44-0.52-1.06-0.78-1.86-0.78-0.787 0-1.407 0.26-1.86 0.78s-0.68 1.24-0.68 2.16c0 0.9067 0.227 1.62 0.68 2.14s1.073 0.78 1.86 0.78zm-33.377 12.2c0.854 0 1.607 0.2067 2.26 0.62 0.654 0.4133 1.16 1 1.52 1.76 0.374 0.76 0.56 1.6467 0.56 2.66s-0.186 1.9133-0.56 2.7c-0.36 0.7733-0.873 1.3733-1.54 1.8-0.653 0.4267-1.4 0.64-2.24 0.64-0.706 0-1.34-0.1533-1.9-0.46-0.546-0.3067-0.966-0.7333-1.26-1.28v0.5c0 0.36-0.113 0.6467-0.34 0.86-0.226 0.2133-0.526 0.32-0.9 0.32-0.373 0-0.673-0.1067-0.9-0.32-0.213-0.2133-0.32-0.5-0.32-0.86v-11.96c0-0.3467 0.114-0.6267 0.34-0.84 0.24-0.2133 0.547-0.32 0.92-0.32 0.374 0 0.674 0.1 0.9 0.3 0.227 0.2 0.34 0.4733 0.34 0.82v4.72c0.294-0.5333 0.714-0.94 1.26-1.22 0.547-0.2933 1.167-0.44 1.86-0.44zm-0.66 8.24c0.787 0 1.4-0.28 1.84-0.84s0.66-1.3467 0.66-2.36c0-1-0.22-1.7667-0.66-2.3-0.426-0.5333-1.04-0.8-1.84-0.8s-1.42 0.2733-1.86 0.82c-0.426 0.5333-0.64 1.3067-0.64 2.32s0.214 1.7933 0.64 2.34c0.44 0.5467 1.06 0.82 1.86 0.82zm12.712-8.2c0.347-0.0267 0.62 0.0467 0.82 0.22s0.3 0.4333 0.3 0.78c0 0.36-0.086 0.6267-0.26 0.8-0.173 0.1733-0.486 0.2867-0.94 0.34l-0.6 0.06c-0.786 0.08-1.366 0.3467-1.74 0.8-0.36 0.4533-0.54 1.02-0.54 1.7v4.2c0 0.3867-0.12 0.6867-0.36 0.9-0.24 0.2-0.54 0.3-0.9 0.3s-0.66-0.1-0.9-0.3c-0.226-0.2133-0.34-0.5133-0.34-0.9v-7.74c0-0.3733 0.114-0.66 0.34-0.86 0.24-0.2 0.534-0.3 0.88-0.3 0.347 0 0.627 0.1 0.84 0.3 0.214 0.1867 0.32 0.46 0.32 0.82v0.8c0.254-0.5867 0.627-1.04 1.12-1.36 0.507-0.32 1.067-0.5 1.68-0.54l0.28-0.02zm9.941 7.3c0.227 0 0.407 0.0867 0.54 0.26 0.147 0.1733 0.22 0.4067 0.22 0.7 0 0.4133-0.247 0.76-0.74 1.04-0.453 0.2533-0.967 0.46-1.54 0.62-0.573 0.1467-1.12 0.22-1.64 0.22-1.573 0-2.82-0.4533-3.74-1.36s-1.38-2.1467-1.38-3.72c0-1 0.2-1.8867 0.6-2.66s0.96-1.3733 1.68-1.8c0.733-0.4267 1.56-0.64 2.48-0.64 0.88 0 1.647 0.1933 2.3 0.58s1.16 0.9333 1.52 1.64 0.54 1.54 0.54 2.5c0 0.5733-0.253 0.86-0.76 0.86h-5.9c0.08 0.92 0.34 1.6 0.78 2.04 0.44 0.4267 1.08 0.64 1.92 0.64 0.427 0 0.8-0.0533 1.12-0.16 0.333-0.1067 0.707-0.2533 1.12-0.44 0.4-0.2133 0.693-0.32 0.88-0.32zm-3.46-5.58c-0.68 0-1.227 0.2133-1.64 0.64-0.4 0.4267-0.64 1.04-0.72 1.84h4.52c-0.027-0.8133-0.227-1.4267-0.6-1.84-0.373-0.4267-0.893-0.64-1.56-0.64zm10.785-1.76c1.36 0 2.367 0.34 3.02 1.02 0.667 0.6667 1 1.6867 1 3.06v4.88c0 0.36-0.107 0.6467-0.32 0.86-0.213 0.2-0.507 0.3-0.88 0.3-0.347 0-0.633-0.1067-0.86-0.32-0.213-0.2133-0.32-0.4933-0.32-0.84v-0.44c-0.227 0.52-0.587 0.9267-1.08 1.22-0.48 0.2933-1.04 0.44-1.68 0.44-0.653 0-1.247-0.1333-1.78-0.4s-0.953-0.6333-1.26-1.1-0.46-0.9867-0.46-1.56c0-0.72 0.18-1.2867 0.54-1.7 0.373-0.4133 0.973-0.7133 1.8-0.9s1.967-0.28 3.42-0.28h0.5v-0.46c0-0.6533-0.14-1.1267-0.42-1.42-0.28-0.3067-0.733-0.46-1.36-0.46-0.387 0-0.78 0.06-1.18 0.18-0.4 0.1067-0.873 0.2667-1.42 0.48-0.347 0.1733-0.6 0.26-0.76 0.26-0.24 0-0.44-0.0867-0.6-0.26-0.147-0.1733-0.22-0.4-0.22-0.68 0-0.2267 0.053-0.42 0.16-0.58 0.12-0.1733 0.313-0.3333 0.58-0.48 0.467-0.2533 1.02-0.4533 1.66-0.6 0.653-0.1467 1.293-0.22 1.92-0.22zm-0.62 8.38c0.667 0 1.207-0.22 1.62-0.66 0.427-0.4533 0.64-1.0333 0.64-1.74v-0.42h-0.36c-0.893 0-1.587 0.04-2.08 0.12s-0.847 0.22-1.06 0.42-0.32 0.4733-0.32 0.82c0 0.4267 0.147 0.78 0.44 1.06 0.307 0.2667 0.68 0.4 1.12 0.4zm16.081-0.3c0.267 0.2533 0.4 0.54 0.4 0.86 0 0.3067-0.113 0.58-0.34 0.82-0.213 0.24-0.467 0.36-0.76 0.36s-0.567-0.12-0.82-0.36l-4.68-4.24v3.42c0 0.3867-0.12 0.68-0.36 0.88s-0.54 0.3-0.9 0.3-0.66-0.1-0.9-0.3c-0.227-0.2-0.34-0.4933-0.34-0.88v-11.94c0-0.3867 0.113-0.68 0.34-0.88 0.24-0.2 0.54-0.3 0.9-0.3s0.66 0.1 0.9 0.3 0.36 0.4933 0.36 0.88v7.52l4.28-4.1c0.24-0.24 0.513-0.36 0.82-0.36s0.573 0.1133 0.8 0.34 0.34 0.4933 0.34 0.8-0.127 0.5867-0.38 0.84l-3.14 2.92 3.48 3.12z" fill="#fff"/>
</g>
<g filter="url(#a)">
<path d="m427.99 64.98c1.173 0 2.047 0.3333 2.62 1s0.86 1.6733 0.86 3.02v4.92c0 0.3733-0.113 0.6667-0.34 0.88-0.213 0.2133-0.513 0.32-0.9 0.32s-0.693-0.1067-0.92-0.32-0.34-0.5067-0.34-0.88v-4.78c0-0.76-0.147-1.3133-0.44-1.66-0.28-0.3467-0.727-0.52-1.34-0.52-0.72 0-1.3 0.2267-1.74 0.68-0.427 0.4533-0.64 1.06-0.64 1.82v4.46c0 0.3733-0.113 0.6667-0.34 0.88s-0.533 0.32-0.92 0.32-0.693-0.1067-0.92-0.32c-0.213-0.2133-0.32-0.5067-0.32-0.88v-7.74c0-0.3467 0.113-0.6267 0.34-0.84s0.533-0.32 0.92-0.32c0.347 0 0.627 0.1067 0.84 0.32 0.227 0.2 0.34 0.4667 0.34 0.8v0.54c0.333-0.5467 0.78-0.9667 1.34-1.26s1.193-0.44 1.9-0.44zm13.959 7.34c0.227 0 0.407 0.0867 0.54 0.26 0.147 0.1733 0.22 0.4067 0.22 0.7 0 0.4133-0.246 0.76-0.74 1.04-0.453 0.2533-0.966 0.46-1.54 0.62-0.573 0.1467-1.12 0.22-1.64 0.22-1.573 0-2.82-0.4533-3.74-1.36s-1.38-2.1467-1.38-3.72c0-1 0.2-1.8867 0.6-2.66s0.96-1.3733 1.68-1.8c0.734-0.4267 1.56-0.64 2.48-0.64 0.88 0 1.647 0.1933 2.3 0.58 0.654 0.3867 1.16 0.9333 1.52 1.64s0.54 1.54 0.54 2.5c0 0.5733-0.253 0.86-0.76 0.86h-5.9c0.08 0.92 0.34 1.6 0.78 2.04 0.44 0.4267 1.08 0.64 1.92 0.64 0.427 0 0.8-0.0533 1.12-0.16 0.334-0.1067 0.707-0.2533 1.12-0.44 0.4-0.2133 0.694-0.32 0.88-0.32zm-3.46-5.58c-0.68 0-1.226 0.2133-1.64 0.64-0.4 0.4267-0.64 1.04-0.72 1.84h4.52c-0.026-0.8133-0.226-1.4267-0.6-1.84-0.373-0.4267-0.893-0.64-1.56-0.64zm14.83 6.42c0.24 0.24 0.36 0.5133 0.36 0.82 0 0.2933-0.113 0.56-0.34 0.8-0.227 0.2267-0.493 0.34-0.8 0.34-0.333 0-0.62-0.14-0.86-0.42l-2.82-3.12-2.82 3.12c-0.253 0.2667-0.54 0.4-0.86 0.4-0.293 0-0.553-0.1133-0.78-0.34s-0.34-0.4867-0.34-0.78c0-0.3067 0.12-0.58 0.36-0.82l2.92-3.18-2.76-3c-0.24-0.24-0.36-0.5133-0.36-0.82s0.113-0.5667 0.34-0.78c0.227-0.2267 0.487-0.34 0.78-0.34 0.32 0 0.607 0.1333 0.86 0.4l2.66 2.92 2.66-2.92c0.253-0.2667 0.54-0.4 0.86-0.4 0.307 0 0.567 0.1133 0.78 0.34 0.227 0.2133 0.34 0.4733 0.34 0.78s-0.12 0.58-0.36 0.82l-2.76 3 2.94 3.18zm7.445 0.1c0.666 0.04 1 0.34 1 0.9 0 0.32-0.134 0.5667-0.4 0.74-0.254 0.16-0.62 0.2267-1.1 0.2l-0.54-0.04c-2.24-0.16-3.36-1.36-3.36-3.6v-4.36h-1c-0.36 0-0.64-0.08-0.84-0.24-0.187-0.16-0.28-0.3933-0.28-0.7s0.093-0.54 0.28-0.7c0.2-0.16 0.48-0.24 0.84-0.24h1v-1.84c0-0.36 0.113-0.6467 0.34-0.86 0.226-0.2133 0.533-0.32 0.92-0.32 0.373 0 0.673 0.1067 0.9 0.32 0.226 0.2133 0.34 0.5 0.34 0.86v1.84h1.7c0.36 0 0.633 0.08 0.82 0.24 0.2 0.16 0.3 0.3933 0.3 0.7s-0.1 0.54-0.3 0.7c-0.187 0.16-0.46 0.24-0.82 0.24h-1.7v4.54c0 0.9867 0.453 1.5133 1.36 1.58l0.54 0.04zm3.741-2.34c-0.2 0-0.373-0.0667-0.52-0.2-0.133-0.1333-0.213-0.3267-0.24-0.58l-0.74-7.78-0.02-0.2c0-0.4133 0.14-0.74 0.42-0.98 0.293-0.2533 0.66-0.38 1.1-0.38 0.467 0 0.847 0.1467 1.14 0.44 0.293 0.28 0.413 0.66 0.36 1.14l-0.74 7.76c-0.027 0.2533-0.113 0.4467-0.26 0.58-0.133 0.1333-0.3 0.2-0.5 0.2zm0 4.2c-0.427 0-0.78-0.14-1.06-0.42-0.28-0.2933-0.42-0.6533-0.42-1.08s0.14-0.78 0.42-1.06c0.28-0.2933 0.633-0.44 1.06-0.44s0.78 0.1467 1.06 0.44c0.28 0.28 0.42 0.6333 0.42 1.06s-0.14 0.7867-0.42 1.08c-0.28 0.28-0.633 0.42-1.06 0.42z" fill="#fff"/>
</g>
<defs>
<filter id="d" x="12" y="0" width="458" height="58" color-interpolation-filters="sRGB" filterUnits="userSpaceOnUse">
<feFlood flood-opacity="0" result="BackgroundImageFix"/>
<feBlend in="SourceGraphic" in2="BackgroundImageFix" result="shape"/>
<feColorMatrix in="SourceAlpha" result="hardAlpha" values="0 0 0 0 0 0 0 0 0 0 0 0 0 0 0 0 0 0 127 0"/>
<feOffset dy="4"/>
<feGaussianBlur stdDeviation="2"/>
<feComposite in2="hardAlpha" k2="-1" k3="1" operator="arithmetic"/>
<feColorMatrix values="0 0 0 0 0 0 0 0 0 0 0 0 0 0 0 0 0 0 0.25 0"/>
<feBlend in2="shape" result="effect1_innerShadow"/>
</filter>
<filter id="c" x="10.672" y="56.8" width="54.733" height="22.36" color-interpolation-filters="sRGB" filterUnits="userSpaceOnUse">
<feFlood flood-opacity="0" result="BackgroundImageFix"/>
<feColorMatrix in="SourceAlpha" values="0 0 0 0 0 0 0 0 0 0 0 0 0 0 0 0 0 0 127 0"/>
<feOffset dy="4"/>
<feGaussianBlur stdDeviation="2"/>
<feColorMatrix values="0 0 0 0 0 0 0 0 0 0 0 0 0 0 0 0 0 0 0.25 0"/>
<feBlend in2="BackgroundImageFix" result="effect1_dropShadow"/>
<feBlend in="SourceGraphic" in2="effect1_dropShadow" result="shape"/>
</filter>
<filter id="b" x="310.09" y="56.8" width="58.799" height="42.36" color-interpolation-filters="sRGB" filterUnits="userSpaceOnUse">
<feFlood flood-opacity="0" result="BackgroundImageFix"/>
<feColorMatrix in="SourceAlpha" values="0 0 0 0 0 0 0 0 0 0 0 0 0 0 0 0 0 0 127 0"/>
<feOffset dy="4"/>
<feGaussianBlur stdDeviation="2"/>
<feColorMatrix values="0 0 0 0 0 0 0 0 0 0 0 0 0 0 0 0 0 0 0.25 0"/>
<feBlend in2="BackgroundImageFix" result="effect1_dropShadow"/>
<feBlend in="SourceGraphic" in2="effect1_dropShadow" result="shape"/>
</filter>
<filter id="a" x="418.31" y="58.8" width="51.707" height="22.36" color-interpolation-filters="sRGB" filterUnits="userSpaceOnUse">
<feFlood flood-opacity="0" result="BackgroundImageFix"/>
<feColorMatrix in="SourceAlpha" values="0 0 0 0 0 0 0 0 0 0 0 0 0 0 0 0 0 0 127 0"/>
<feOffset dy="4"/>
<feGaussianBlur stdDeviation="2"/>
<feColorMatrix values="0 0 0 0 0 0 0 0 0 0 0 0 0 0 0 0 0 0 0.25 0"/>
<feBlend in2="BackgroundImageFix" result="effect1_dropShadow"/>
<feBlend in="SourceGraphic" in2="effect1_dropShadow" result="shape"/>
</filter>
</defs>
</svg>
