<svg width="466" height="313" viewBox="0 0 466 313" fill="none" xmlns="http://www.w3.org/2000/svg">
<g filter="url(#filter0_d)">
<path d="M22.8099 296.594C20.444 297.363 18.1853 296.937 17.7648 295.642C17.3442 294.348 18.9212 292.676 21.2871 291.907C23.6529 291.139 32.3372 289.477 32.7577 290.771C33.1783 292.065 25.1757 295.825 22.8099 296.594Z" fill="white"/>
<path d="M14.9823 267.424C12.2831 267.851 9.89273 266.921 9.64335 265.347C9.39396 263.772 11.38 262.149 14.0792 261.722C16.7785 261.294 26.5 261.063 26.7494 262.638C26.9988 264.212 17.6816 266.996 14.9823 267.424Z" fill="white"/>
<path d="M9.33123 231.237C6.50998 231.237 4.2229 229.903 4.2229 228.257C4.2229 226.611 6.50998 225.277 9.33123 225.277C12.1525 225.277 22.1021 226.611 22.1021 228.257C22.1021 229.903 12.1525 231.237 9.33123 231.237Z" fill="white"/>
<path d="M14.079 197.948C11.3797 197.52 9.39368 195.897 9.64307 194.323C9.89245 192.748 12.2828 191.818 14.9821 192.246C17.6813 192.673 26.9985 195.458 26.7491 197.032C26.4997 198.607 16.7782 198.375 14.079 197.948Z" fill="white"/>
<path d="M16.3123 162.885C12.5733 161.67 10.2193 158.601 11.0545 156.031C11.8897 153.46 15.5977 152.361 19.3367 153.576C23.0757 154.791 35.5847 161.159 34.7495 163.73C33.9143 166.3 20.0512 164.099 16.3123 162.885Z" fill="white"/>
<path d="M32.6837 132.492C30.3195 131.287 29.1271 128.89 30.0203 127.137C30.9135 125.384 33.5541 124.939 35.9183 126.144C38.2825 127.348 45.896 133.018 45.0028 134.771C44.1096 136.524 35.0479 133.697 32.6837 132.492Z" fill="white"/>
<path d="M52.9463 101.537C50.7353 99.9306 49.7026 97.5829 50.6396 96.2931C51.5767 95.0034 54.1286 95.2601 56.3396 96.8664C58.5506 98.4728 65.5883 105.183 64.6512 106.473C63.7142 107.763 55.1572 103.143 52.9463 101.537Z" fill="white"/>
<path d="M75.1104 74.8213C73.178 72.8888 72.5252 70.4084 73.6525 69.2811C74.7798 68.1539 77.2602 68.8066 79.1926 70.7391C81.1251 72.6715 87.0264 80.4005 85.8991 81.5277C84.7718 82.655 77.0429 76.7537 75.1104 74.8213Z" fill="white"/>
<path d="M101.238 51.9681C99.6318 49.7572 99.3752 47.2052 100.665 46.2681C101.955 45.3311 104.302 46.3638 105.909 48.5748C107.515 50.7858 112.135 59.3427 110.845 60.2797C109.555 61.2168 102.845 54.1791 101.238 51.9681Z" fill="white"/>
<path d="M122.976 26.7082C120.894 22.6207 121.138 18.3223 123.523 17.1074C125.907 15.8925 129.528 18.2212 131.611 22.3087C133.694 26.3962 139.106 41.7963 136.721 43.0112C134.337 44.2261 125.059 30.7957 122.976 26.7082Z" fill="white"/>
<path d="M162.481 18.8851C161.636 16.2859 162.181 13.7795 163.697 13.2869C165.213 12.7943 167.127 14.5019 167.971 17.1011C168.816 19.7002 170.565 29.2659 169.049 29.7585C167.533 30.2511 163.325 21.4842 162.481 18.8851Z" fill="white"/>
<path d="M195.685 10.8347C195.257 8.13548 196.4 5.71143 198.237 5.42048C200.074 5.12953 201.91 7.08185 202.337 9.78111C202.765 12.4804 202.783 22.2356 200.946 22.5265C199.109 22.8175 196.112 13.534 195.685 10.8347Z" fill="white"/>
<path d="M229.5 5.44899C229.5 2.43966 231.101 0.000108719 233.076 0.000108719C235.051 0.000108719 236.652 2.43966 236.652 5.44899C236.652 8.45833 235.051 19.0712 233.076 19.0712C231.101 19.0712 229.5 8.45833 229.5 5.44899Z" fill="white"/>
<path d="M265.161 9.78116C265.588 7.0819 267.424 5.12958 269.261 5.42053C271.098 5.71148 272.24 8.13553 271.813 10.8348C271.385 13.5341 268.389 22.8175 266.552 22.5266C264.715 22.2356 264.733 12.4804 265.161 9.78116Z" fill="white"/>
<path d="M299.337 11.054C300.616 7.119 303.823 4.63446 306.501 5.50458C309.179 6.3747 310.314 10.27 309.035 14.205C307.757 18.1399 301.077 31.3118 298.399 30.4417C295.721 29.5715 298.059 14.9889 299.337 11.054Z" fill="white"/>
<path d="M332.019 30.3052C333.26 27.8701 335.609 26.5806 337.266 27.425C338.923 28.2694 339.261 30.9279 338.02 33.3629C336.779 35.798 331.06 43.701 329.403 42.8566C327.746 42.0122 330.778 32.7402 332.019 30.3052Z" fill="white"/>
<path d="M361.657 48.4407C363.263 46.2297 365.785 45.3236 367.29 46.4168C368.795 47.51 368.712 50.1886 367.106 52.3996C365.5 54.6105 358.615 61.5216 357.11 60.4284C355.605 59.3352 360.051 50.6516 361.657 48.4407Z" fill="white"/>
<path d="M389.384 70.5474C391.316 68.615 393.949 68.1145 395.264 69.4297C396.579 70.7448 396.079 73.3775 394.146 75.31C392.214 77.2425 384.333 82.9914 383.018 81.6763C381.703 80.3611 387.451 72.4799 389.384 70.5474Z" fill="white"/>
<path d="M412.295 96.6261C414.505 95.0197 417.184 94.9373 418.277 96.442C419.37 97.9467 418.464 100.469 416.253 102.075C414.042 103.681 405.359 108.127 404.266 106.622C403.172 105.117 410.084 98.2325 412.295 96.6261Z" fill="white"/>
<path d="M438.509 122.294C442.41 120.307 446.669 120.848 448.022 123.502C449.374 126.157 447.309 129.92 443.408 131.908C439.507 133.896 424.653 138.753 423.301 136.098C421.948 133.444 434.609 124.282 438.509 122.294Z" fill="white"/>
<path d="M444.55 158.762C447.149 157.918 449.722 158.667 450.297 160.436C450.872 162.205 449.231 164.323 446.632 165.168C444.033 166.012 434.4 167.557 433.826 165.788C433.251 164.019 441.951 159.607 444.55 158.762Z" fill="white"/>
<path d="M452.897 191.919C455.597 191.492 458.021 192.634 458.312 194.471C458.603 196.308 456.65 198.144 453.951 198.571C451.252 198.999 441.497 199.018 441.206 197.181C440.915 195.344 450.198 192.347 452.897 191.919Z" fill="white"/>
<path d="M456.821 225.277C459.642 225.277 461.929 226.878 461.929 228.853C461.929 230.828 459.642 232.429 456.821 232.429C453.999 232.429 444.05 230.828 444.05 228.853C444.05 226.878 453.999 225.277 456.821 225.277Z" fill="white"/>
<path d="M454.913 261.395C457.612 261.823 459.564 263.658 459.274 265.495C458.983 267.332 456.559 268.475 453.859 268.047C451.16 267.62 441.876 264.623 442.167 262.786C442.458 260.949 452.214 260.968 454.913 261.395Z" fill="white"/>
<path d="M454.857 294.227C459 295.573 461.616 298.95 460.699 301.77C459.783 304.589 455.682 305.784 451.539 304.438C447.396 303.092 433.527 296.058 434.443 293.239C435.36 290.419 450.714 292.881 454.857 294.227Z" fill="white"/>
</g>
<defs>
<filter id="filter0_d" x="0.2229" y="0.00012207" width="465.706" height="312.991" filterUnits="userSpaceOnUse" color-interpolation-filters="sRGB">
<feFlood flood-opacity="0" result="BackgroundImageFix"/>
<feColorMatrix in="SourceAlpha" type="matrix" values="0 0 0 0 0 0 0 0 0 0 0 0 0 0 0 0 0 0 127 0"/>
<feOffset dy="4"/>
<feGaussianBlur stdDeviation="2"/>
<feColorMatrix type="matrix" values="0 0 0 0 0 0 0 0 0 0 0 0 0 0 0 0 0 0 0.25 0"/>
<feBlend mode="normal" in2="BackgroundImageFix" result="effect1_dropShadow"/>
<feBlend mode="normal" in="SourceGraphic" in2="effect1_dropShadow" result="shape"/>
</filter>
</defs>
</svg>