<svg width="3" height="15" viewBox="0 0 3 15" fill="none" xmlns="http://www.w3.org/2000/svg">
<path d="M1.5 3.93398C2.325 3.93398 3 3.13805 3 2.16523C3 1.19242 2.325 0.396484 1.5 0.396484C0.675 0.396484 0 1.19242 0 2.16523C0 3.13805 0.675 3.93398 1.5 3.93398ZM1.5 5.70273C0.675 5.70273 0 6.49867 0 7.47148C0 8.4443 0.675 9.24023 1.5 9.24023C2.325 9.24023 3 8.4443 3 7.47148C3 6.49867 2.325 5.70273 1.5 5.70273ZM1.5 11.009C0.675 11.009 0 11.8049 0 12.7777C0 13.7505 0.675 14.5465 1.5 14.5465C2.325 14.5465 3 13.7505 3 12.7777C3 11.8049 2.325 11.009 1.5 11.009Z" fill="#B50000"/>
</svg>