<svg width="482" height="100" viewBox="0 0 482 100" fill="none" xmlns="http://www.w3.org/2000/svg">
<g filter="url(#filter0_i)">
<circle cx="38.5" cy="27.5" r="26.5" fill="white"/>
<circle cx="338.5" cy="26.5" r="26.5" fill="white"/>
<circle cx="443.5" cy="26.5" r="26.5" fill="white"/>
<line x1="64" y1="27" x2="314" y2="27" stroke="white" stroke-width="10"/>
<line x1="362" y1="27" x2="422" y2="27" stroke="white" stroke-width="10"/>
</g>
<g filter="url(#filter1_d)">
<path d="M28.7923 61.76C28.8856 61.52 29.0189 61.34 29.1923 61.22C29.3789 61.1 29.5789 61.04 29.7923 61.04C30.0989 61.04 30.3723 61.1467 30.6123 61.36C30.8656 61.56 30.9923 61.8133 30.9923 62.12C30.9923 62.2933 30.9589 62.4467 30.8923 62.58L27.5923 70.32C27.4856 70.5733 27.3189 70.7667 27.0923 70.9C26.8789 71.0333 26.6389 71.1 26.3723 71.1C26.1189 71.1 25.8789 71.0333 25.6523 70.9C25.4389 70.7667 25.2789 70.5733 25.1723 70.32L22.7923 64.6L20.4923 70.32C20.3856 70.5733 20.2189 70.7667 19.9923 70.9C19.7789 71.0333 19.5389 71.1 19.2723 71.1C19.0189 71.1 18.7789 71.0333 18.5523 70.9C18.3256 70.7667 18.1589 70.5733 18.0523 70.32L14.7723 62.58C14.7056 62.4067 14.6723 62.26 14.6723 62.14C14.6723 61.8333 14.8056 61.5733 15.0723 61.36C15.3389 61.1333 15.6323 61.02 15.9523 61.02C16.1789 61.02 16.3856 61.08 16.5723 61.2C16.7589 61.32 16.8989 61.5 16.9923 61.74L19.3523 67.84L21.7723 61.8C21.8789 61.5467 22.0323 61.36 22.2323 61.24C22.4323 61.1067 22.6523 61.04 22.8923 61.04C23.1323 61.04 23.3523 61.1067 23.5523 61.24C23.7523 61.36 23.9056 61.5467 24.0123 61.8L26.4523 67.86L28.7923 61.76ZM37.2049 71.16C36.2049 71.16 35.3249 70.9533 34.5649 70.54C33.8183 70.1267 33.2383 69.5333 32.8249 68.76C32.4116 67.9867 32.2049 67.0867 32.2049 66.06C32.2049 65.0333 32.4116 64.14 32.8249 63.38C33.2383 62.6067 33.8183 62.0133 34.5649 61.6C35.3249 61.1867 36.2049 60.98 37.2049 60.98C38.2049 60.98 39.0783 61.1867 39.8249 61.6C40.5849 62.0133 41.1649 62.6067 41.5649 63.38C41.9783 64.14 42.1849 65.0333 42.1849 66.06C42.1849 67.0867 41.9783 67.9867 41.5649 68.76C41.1649 69.5333 40.5849 70.1267 39.8249 70.54C39.0783 70.9533 38.2049 71.16 37.2049 71.16ZM37.1849 69.22C37.9983 69.22 38.6183 68.9533 39.0449 68.42C39.4716 67.8867 39.6849 67.1 39.6849 66.06C39.6849 65.0333 39.4716 64.2533 39.0449 63.72C38.6183 63.1733 38.0049 62.9 37.2049 62.9C36.4049 62.9 35.7849 63.1733 35.3449 63.72C34.9183 64.2533 34.7049 65.0333 34.7049 66.06C34.7049 67.1 34.9183 67.8867 35.3449 68.42C35.7716 68.9533 36.3849 69.22 37.1849 69.22ZM49.9088 61.02C50.2555 60.9933 50.5288 61.0667 50.7288 61.24C50.9288 61.4133 51.0288 61.6733 51.0288 62.02C51.0288 62.38 50.9422 62.6467 50.7688 62.82C50.5955 62.9933 50.2822 63.1067 49.8288 63.16L49.2288 63.22C48.4422 63.3 47.8622 63.5667 47.4888 64.02C47.1288 64.4733 46.9488 65.04 46.9488 65.72V69.92C46.9488 70.3067 46.8288 70.6067 46.5888 70.82C46.3488 71.02 46.0488 71.12 45.6888 71.12C45.3288 71.12 45.0288 71.02 44.7888 70.82C44.5622 70.6067 44.4488 70.3067 44.4488 69.92V62.18C44.4488 61.8067 44.5622 61.52 44.7888 61.32C45.0288 61.12 45.3222 61.02 45.6688 61.02C46.0155 61.02 46.2955 61.12 46.5088 61.32C46.7222 61.5067 46.8288 61.78 46.8288 62.14V62.94C47.0822 62.3533 47.4555 61.9 47.9488 61.58C48.4555 61.26 49.0155 61.08 49.6288 61.04L49.9088 61.02ZM61.0051 69.06C61.2717 69.3133 61.4051 69.6 61.4051 69.92C61.4051 70.2267 61.2917 70.5 61.0651 70.74C60.8517 70.98 60.5984 71.1 60.3051 71.1C60.0117 71.1 59.7384 70.98 59.4851 70.74L54.8051 66.5V69.92C54.8051 70.3067 54.6851 70.6 54.4451 70.8C54.2051 71 53.9051 71.1 53.5451 71.1C53.1851 71.1 52.8851 71 52.6451 70.8C52.4184 70.6 52.3051 70.3067 52.3051 69.92V57.98C52.3051 57.5933 52.4184 57.3 52.6451 57.1C52.8851 56.9 53.1851 56.8 53.5451 56.8C53.9051 56.8 54.2051 56.9 54.4451 57.1C54.6851 57.3 54.8051 57.5933 54.8051 57.98V65.5L59.0851 61.4C59.3251 61.16 59.5984 61.04 59.9051 61.04C60.2117 61.04 60.4784 61.1533 60.7051 61.38C60.9317 61.6067 61.0451 61.8733 61.0451 62.18C61.0451 62.4867 60.9184 62.7667 60.6651 63.02L57.5251 65.94L61.0051 69.06Z" fill="white"/>
</g>
<g filter="url(#filter2_d)">
<path d="M320.945 71.12C320.585 71.12 320.285 71.02 320.045 70.82C319.818 70.6067 319.705 70.3067 319.705 69.92V57.98C319.705 57.5933 319.818 57.3 320.045 57.1C320.285 56.9 320.585 56.8 320.945 56.8C321.305 56.8 321.605 56.9 321.845 57.1C322.085 57.3 322.205 57.5933 322.205 57.98V69.92C322.205 70.3067 322.085 70.6067 321.845 70.82C321.605 71.02 321.305 71.12 320.945 71.12ZM329.443 71.16C328.443 71.16 327.563 70.9533 326.803 70.54C326.056 70.1267 325.476 69.5333 325.063 68.76C324.649 67.9867 324.443 67.0867 324.443 66.06C324.443 65.0333 324.649 64.14 325.063 63.38C325.476 62.6067 326.056 62.0133 326.803 61.6C327.563 61.1867 328.443 60.98 329.443 60.98C330.443 60.98 331.316 61.1867 332.063 61.6C332.823 62.0133 333.403 62.6067 333.803 63.38C334.216 64.14 334.423 65.0333 334.423 66.06C334.423 67.0867 334.216 67.9867 333.803 68.76C333.403 69.5333 332.823 70.1267 332.063 70.54C331.316 70.9533 330.443 71.16 329.443 71.16ZM329.423 69.22C330.236 69.22 330.856 68.9533 331.283 68.42C331.709 67.8867 331.923 67.1 331.923 66.06C331.923 65.0333 331.709 64.2533 331.283 63.72C330.856 63.1733 330.243 62.9 329.443 62.9C328.643 62.9 328.023 63.1733 327.583 63.72C327.156 64.2533 326.943 65.0333 326.943 66.06C326.943 67.1 327.156 67.8867 327.583 68.42C328.009 68.9533 328.623 69.22 329.423 69.22ZM342.367 60.98C343.54 60.98 344.413 61.3133 344.987 61.98C345.56 62.6467 345.847 63.6533 345.847 65V69.92C345.847 70.2933 345.733 70.5867 345.507 70.8C345.293 71.0133 344.993 71.12 344.607 71.12C344.22 71.12 343.913 71.0133 343.687 70.8C343.46 70.5867 343.347 70.2933 343.347 69.92V65.14C343.347 64.38 343.2 63.8267 342.907 63.48C342.627 63.1333 342.18 62.96 341.567 62.96C340.847 62.96 340.267 63.1867 339.827 63.64C339.4 64.0933 339.187 64.7 339.187 65.46V69.92C339.187 70.2933 339.073 70.5867 338.847 70.8C338.62 71.0133 338.313 71.12 337.927 71.12C337.54 71.12 337.233 71.0133 337.007 70.8C336.793 70.5867 336.687 70.2933 336.687 69.92V62.18C336.687 61.8333 336.8 61.5533 337.027 61.34C337.253 61.1267 337.56 61.02 337.947 61.02C338.293 61.02 338.573 61.1267 338.787 61.34C339.013 61.54 339.127 61.8067 339.127 62.14V62.68C339.46 62.1333 339.907 61.7133 340.467 61.42C341.027 61.1267 341.66 60.98 342.367 60.98ZM356.866 61.02C357.239 61.02 357.539 61.1267 357.766 61.34C357.993 61.5533 358.106 61.84 358.106 62.2V70.1C358.106 71.6333 357.679 72.7933 356.826 73.58C355.973 74.3667 354.713 74.76 353.046 74.76C351.593 74.76 350.379 74.4867 349.406 73.94C348.913 73.6467 348.666 73.2933 348.666 72.88C348.666 72.5867 348.733 72.3533 348.866 72.18C349.013 72.0067 349.199 71.92 349.426 71.92C349.546 71.92 349.693 71.9467 349.866 72C350.039 72.0667 350.219 72.14 350.406 72.22C350.886 72.42 351.313 72.5733 351.686 72.68C352.073 72.7867 352.513 72.84 353.006 72.84C354.753 72.84 355.626 71.9867 355.626 70.28V69C355.333 69.5467 354.906 69.9733 354.346 70.28C353.786 70.5733 353.146 70.72 352.426 70.72C351.573 70.72 350.813 70.52 350.146 70.12C349.493 69.7067 348.979 69.1333 348.606 68.4C348.233 67.6667 348.046 66.82 348.046 65.86C348.046 64.9 348.226 64.0533 348.586 63.32C348.959 62.5733 349.479 62 350.146 61.6C350.813 61.1867 351.573 60.98 352.426 60.98C353.146 60.98 353.786 61.1333 354.346 61.44C354.906 61.7333 355.333 62.1533 355.626 62.7V62.18C355.626 61.8333 355.739 61.5533 355.966 61.34C356.193 61.1267 356.493 61.02 356.866 61.02ZM353.086 68.78C353.886 68.78 354.506 68.52 354.946 68C355.399 67.48 355.626 66.7667 355.626 65.86C355.626 64.94 355.399 64.22 354.946 63.7C354.506 63.18 353.886 62.92 353.086 62.92C352.299 62.92 351.679 63.18 351.226 63.7C350.773 64.22 350.546 64.94 350.546 65.86C350.546 66.7667 350.773 67.48 351.226 68C351.679 68.52 352.299 68.78 353.086 68.78ZM319.709 80.98C320.563 80.98 321.316 81.1867 321.969 81.6C322.623 82.0133 323.129 82.6 323.489 83.36C323.863 84.12 324.049 85.0067 324.049 86.02C324.049 87.0333 323.863 87.9333 323.489 88.72C323.129 89.4933 322.616 90.0933 321.949 90.52C321.296 90.9467 320.549 91.16 319.709 91.16C319.003 91.16 318.369 91.0067 317.809 90.7C317.263 90.3933 316.843 89.9667 316.549 89.42V89.92C316.549 90.28 316.436 90.5667 316.209 90.78C315.983 90.9933 315.683 91.1 315.309 91.1C314.936 91.1 314.636 90.9933 314.409 90.78C314.196 90.5667 314.089 90.28 314.089 89.92V77.96C314.089 77.6133 314.203 77.3333 314.429 77.12C314.669 76.9067 314.976 76.8 315.349 76.8C315.723 76.8 316.023 76.9 316.249 77.1C316.476 77.3 316.589 77.5733 316.589 77.92V82.64C316.883 82.1067 317.303 81.7 317.849 81.42C318.396 81.1267 319.016 80.98 319.709 80.98ZM319.049 89.22C319.836 89.22 320.449 88.94 320.889 88.38C321.329 87.82 321.549 87.0333 321.549 86.02C321.549 85.02 321.329 84.2533 320.889 83.72C320.463 83.1867 319.849 82.92 319.049 82.92C318.249 82.92 317.629 83.1933 317.189 83.74C316.763 84.2733 316.549 85.0467 316.549 86.06C316.549 87.0733 316.763 87.8533 317.189 88.4C317.629 88.9467 318.249 89.22 319.049 89.22ZM331.761 81.02C332.108 80.9933 332.381 81.0667 332.581 81.24C332.781 81.4133 332.881 81.6733 332.881 82.02C332.881 82.38 332.795 82.6467 332.621 82.82C332.448 82.9933 332.135 83.1067 331.681 83.16L331.081 83.22C330.295 83.3 329.715 83.5667 329.341 84.02C328.981 84.4733 328.801 85.04 328.801 85.72V89.92C328.801 90.3067 328.681 90.6067 328.441 90.82C328.201 91.02 327.901 91.12 327.541 91.12C327.181 91.12 326.881 91.02 326.641 90.82C326.415 90.6067 326.301 90.3067 326.301 89.92V82.18C326.301 81.8067 326.415 81.52 326.641 81.32C326.881 81.12 327.175 81.02 327.521 81.02C327.868 81.02 328.148 81.12 328.361 81.32C328.575 81.5067 328.681 81.78 328.681 82.14V82.94C328.935 82.3533 329.308 81.9 329.801 81.58C330.308 81.26 330.868 81.08 331.481 81.04L331.761 81.02ZM341.702 88.32C341.929 88.32 342.109 88.4067 342.242 88.58C342.389 88.7533 342.462 88.9867 342.462 89.28C342.462 89.6933 342.215 90.04 341.722 90.32C341.269 90.5733 340.755 90.78 340.182 90.94C339.609 91.0867 339.062 91.16 338.542 91.16C336.969 91.16 335.722 90.7067 334.802 89.8C333.882 88.8933 333.422 87.6533 333.422 86.08C333.422 85.08 333.622 84.1933 334.022 83.42C334.422 82.6467 334.982 82.0467 335.702 81.62C336.435 81.1933 337.262 80.98 338.182 80.98C339.062 80.98 339.829 81.1733 340.482 81.56C341.135 81.9467 341.642 82.4933 342.002 83.2C342.362 83.9067 342.542 84.74 342.542 85.7C342.542 86.2733 342.289 86.56 341.782 86.56H335.882C335.962 87.48 336.222 88.16 336.662 88.6C337.102 89.0267 337.742 89.24 338.582 89.24C339.009 89.24 339.382 89.1867 339.702 89.08C340.035 88.9733 340.409 88.8267 340.822 88.64C341.222 88.4267 341.515 88.32 341.702 88.32ZM338.242 82.74C337.562 82.74 337.015 82.9533 336.602 83.38C336.202 83.8067 335.962 84.42 335.882 85.22H340.402C340.375 84.4067 340.175 83.7933 339.802 83.38C339.429 82.9533 338.909 82.74 338.242 82.74ZM349.027 80.98C350.387 80.98 351.394 81.32 352.047 82C352.714 82.6667 353.047 83.6867 353.047 85.06V89.94C353.047 90.3 352.94 90.5867 352.727 90.8C352.514 91 352.22 91.1 351.847 91.1C351.5 91.1 351.214 90.9933 350.987 90.78C350.774 90.5667 350.667 90.2867 350.667 89.94V89.5C350.44 90.02 350.08 90.4267 349.587 90.72C349.107 91.0133 348.547 91.16 347.907 91.16C347.254 91.16 346.66 91.0267 346.127 90.76C345.594 90.4933 345.174 90.1267 344.867 89.66C344.56 89.1933 344.407 88.6733 344.407 88.1C344.407 87.38 344.587 86.8133 344.947 86.4C345.32 85.9867 345.92 85.6867 346.747 85.5C347.574 85.3133 348.714 85.22 350.167 85.22H350.667V84.76C350.667 84.1067 350.527 83.6333 350.247 83.34C349.967 83.0333 349.514 82.88 348.887 82.88C348.5 82.88 348.107 82.94 347.707 83.06C347.307 83.1667 346.834 83.3267 346.287 83.54C345.94 83.7133 345.687 83.8 345.527 83.8C345.287 83.8 345.087 83.7133 344.927 83.54C344.78 83.3667 344.707 83.14 344.707 82.86C344.707 82.6333 344.76 82.44 344.867 82.28C344.987 82.1067 345.18 81.9467 345.447 81.8C345.914 81.5467 346.467 81.3467 347.107 81.2C347.76 81.0533 348.4 80.98 349.027 80.98ZM348.407 89.36C349.074 89.36 349.614 89.14 350.027 88.7C350.454 88.2467 350.667 87.6667 350.667 86.96V86.54H350.307C349.414 86.54 348.72 86.58 348.227 86.66C347.734 86.74 347.38 86.88 347.167 87.08C346.954 87.28 346.847 87.5533 346.847 87.9C346.847 88.3267 346.994 88.68 347.287 88.96C347.594 89.2267 347.967 89.36 348.407 89.36ZM364.488 89.06C364.755 89.3133 364.888 89.6 364.888 89.92C364.888 90.2267 364.775 90.5 364.548 90.74C364.335 90.98 364.081 91.1 363.788 91.1C363.495 91.1 363.221 90.98 362.968 90.74L358.288 86.5V89.92C358.288 90.3067 358.168 90.6 357.928 90.8C357.688 91 357.388 91.1 357.028 91.1C356.668 91.1 356.368 91 356.128 90.8C355.901 90.6 355.788 90.3067 355.788 89.92V77.98C355.788 77.5933 355.901 77.3 356.128 77.1C356.368 76.9 356.668 76.8 357.028 76.8C357.388 76.8 357.688 76.9 357.928 77.1C358.168 77.3 358.288 77.5933 358.288 77.98V85.5L362.568 81.4C362.808 81.16 363.081 81.04 363.388 81.04C363.695 81.04 363.961 81.1533 364.188 81.38C364.415 81.6067 364.528 81.8733 364.528 82.18C364.528 82.4867 364.401 82.7667 364.148 83.02L361.008 85.94L364.488 89.06Z" fill="white"/>
</g>
<g filter="url(#filter3_d)">
<path d="M427.992 62.98C429.165 62.98 430.039 63.3133 430.612 63.98C431.185 64.6467 431.472 65.6533 431.472 67V71.92C431.472 72.2933 431.359 72.5867 431.132 72.8C430.919 73.0133 430.619 73.12 430.232 73.12C429.845 73.12 429.539 73.0133 429.312 72.8C429.085 72.5867 428.972 72.2933 428.972 71.92V67.14C428.972 66.38 428.825 65.8267 428.532 65.48C428.252 65.1333 427.805 64.96 427.192 64.96C426.472 64.96 425.892 65.1867 425.452 65.64C425.025 66.0933 424.812 66.7 424.812 67.46V71.92C424.812 72.2933 424.699 72.5867 424.472 72.8C424.245 73.0133 423.939 73.12 423.552 73.12C423.165 73.12 422.859 73.0133 422.632 72.8C422.419 72.5867 422.312 72.2933 422.312 71.92V64.18C422.312 63.8333 422.425 63.5533 422.652 63.34C422.879 63.1267 423.185 63.02 423.572 63.02C423.919 63.02 424.199 63.1267 424.412 63.34C424.639 63.54 424.752 63.8067 424.752 64.14V64.68C425.085 64.1333 425.532 63.7133 426.092 63.42C426.652 63.1267 427.285 62.98 427.992 62.98ZM441.951 70.32C442.178 70.32 442.358 70.4067 442.491 70.58C442.638 70.7533 442.711 70.9867 442.711 71.28C442.711 71.6933 442.465 72.04 441.971 72.32C441.518 72.5733 441.005 72.78 440.431 72.94C439.858 73.0867 439.311 73.16 438.791 73.16C437.218 73.16 435.971 72.7067 435.051 71.8C434.131 70.8933 433.671 69.6533 433.671 68.08C433.671 67.08 433.871 66.1933 434.271 65.42C434.671 64.6467 435.231 64.0467 435.951 63.62C436.685 63.1933 437.511 62.98 438.431 62.98C439.311 62.98 440.078 63.1733 440.731 63.56C441.385 63.9467 441.891 64.4933 442.251 65.2C442.611 65.9067 442.791 66.74 442.791 67.7C442.791 68.2733 442.538 68.56 442.031 68.56H436.131C436.211 69.48 436.471 70.16 436.911 70.6C437.351 71.0267 437.991 71.24 438.831 71.24C439.258 71.24 439.631 71.1867 439.951 71.08C440.285 70.9733 440.658 70.8267 441.071 70.64C441.471 70.4267 441.765 70.32 441.951 70.32ZM438.491 64.74C437.811 64.74 437.265 64.9533 436.851 65.38C436.451 65.8067 436.211 66.42 436.131 67.22H440.651C440.625 66.4067 440.425 65.7933 440.051 65.38C439.678 64.9533 439.158 64.74 438.491 64.74ZM453.321 71.16C453.561 71.4 453.681 71.6733 453.681 71.98C453.681 72.2733 453.568 72.54 453.341 72.78C453.114 73.0067 452.848 73.12 452.541 73.12C452.208 73.12 451.921 72.98 451.681 72.7L448.861 69.58L446.041 72.7C445.788 72.9667 445.501 73.1 445.181 73.1C444.888 73.1 444.628 72.9867 444.401 72.76C444.174 72.5333 444.061 72.2733 444.061 71.98C444.061 71.6733 444.181 71.4 444.421 71.16L447.341 67.98L444.581 64.98C444.341 64.74 444.221 64.4667 444.221 64.16C444.221 63.8533 444.334 63.5933 444.561 63.38C444.788 63.1533 445.048 63.04 445.341 63.04C445.661 63.04 445.948 63.1733 446.201 63.44L448.861 66.36L451.521 63.44C451.774 63.1733 452.061 63.04 452.381 63.04C452.688 63.04 452.948 63.1533 453.161 63.38C453.388 63.5933 453.501 63.8533 453.501 64.16C453.501 64.4667 453.381 64.74 453.141 64.98L450.381 67.98L453.321 71.16ZM460.766 71.26C461.432 71.3 461.766 71.6 461.766 72.16C461.766 72.48 461.632 72.7267 461.366 72.9C461.112 73.06 460.746 73.1267 460.266 73.1L459.726 73.06C457.486 72.9 456.366 71.7 456.366 69.46V65.1H455.366C455.006 65.1 454.726 65.02 454.526 64.86C454.339 64.7 454.246 64.4667 454.246 64.16C454.246 63.8533 454.339 63.62 454.526 63.46C454.726 63.3 455.006 63.22 455.366 63.22H456.366V61.38C456.366 61.02 456.479 60.7333 456.706 60.52C456.932 60.3067 457.239 60.2 457.626 60.2C457.999 60.2 458.299 60.3067 458.526 60.52C458.752 60.7333 458.866 61.02 458.866 61.38V63.22H460.566C460.926 63.22 461.199 63.3 461.386 63.46C461.586 63.62 461.686 63.8533 461.686 64.16C461.686 64.4667 461.586 64.7 461.386 64.86C461.199 65.02 460.926 65.1 460.566 65.1H458.866V69.64C458.866 70.6267 459.319 71.1533 460.226 71.22L460.766 71.26ZM464.507 68.92C464.307 68.92 464.134 68.8533 463.987 68.72C463.854 68.5867 463.774 68.3933 463.747 68.14L463.007 60.36L462.987 60.16C462.987 59.7467 463.127 59.42 463.407 59.18C463.7 58.9267 464.067 58.8 464.507 58.8C464.974 58.8 465.354 58.9467 465.647 59.24C465.94 59.52 466.06 59.9 466.007 60.38L465.267 68.14C465.24 68.3933 465.154 68.5867 465.007 68.72C464.874 68.8533 464.707 68.92 464.507 68.92ZM464.507 73.12C464.08 73.12 463.727 72.98 463.447 72.7C463.167 72.4067 463.027 72.0467 463.027 71.62C463.027 71.1933 463.167 70.84 463.447 70.56C463.727 70.2667 464.08 70.12 464.507 70.12C464.934 70.12 465.287 70.2667 465.567 70.56C465.847 70.84 465.987 71.1933 465.987 71.62C465.987 72.0467 465.847 72.4067 465.567 72.7C465.287 72.98 464.934 73.12 464.507 73.12Z" fill="white"/>
</g>
<g filter="url(#filter4_d)">
<path d="M32.4547 12.0965L35.5236 5.13236L37.3055 3.04723e-05L38.5156 4.93039L37.1628 9.45211L33.6649 17.0269L31.7014 21.1196L30.1307 21.4081L29.099 17.0351L32.4547 12.0965Z" fill="url(#paint0_linear)"/>
</g>
<g filter="url(#filter5_d)">
<path d="M25.9303 3.73181L28.1689 11.9407L30.4077 17.1645L28.1689 18.657L25.9303 12.6869L22.1989 6.71685L25.9303 3.73181Z" fill="url(#paint1_linear)"/>
</g>
<g filter="url(#filter6_d)">
<path d="M21.8898 24.2759L15.707 28.7134L11.5637 32.2275L13.0277 27.3664L15.707 23.1339L21.8898 20.505L25.7978 16.2984L31.5813 14.1953L35.7876 15.773L33.1586 18.4015L27.29 21.7288L21.8898 24.2759Z" fill="url(#paint2_linear)"/>
</g>
<g filter="url(#filter7_d)">
<path d="M40.5368 13.5008L47.9994 12.0083L53.2232 10.5157L49.8847 14.3403L45.4071 15.8328L37.1983 17.3254L32.7207 18.0716L31.5817 16.9522L34.5667 13.5941L40.5368 13.5008Z" fill="url(#paint3_linear)"/>
</g>
<g filter="url(#filter8_d)">
<path d="M59.0001 34.7012C59.0001 43.6393 47.8477 49.6062 37.9749 49.6062C26.9337 49.6062 20.6188 39.3158 20.6188 29.4431C20.6188 19.5703 32.3027 14.7214 42.1754 14.7214C48.4847 14.7214 59.0001 16.8249 59.0001 34.7012Z" fill="#F40000"/>
</g>
<path d="M57.4226 31.5464C57.4226 38.5097 51.2403 47.3195 42.1752 47.3195C35.4165 47.3195 26.9279 38.5096 26.9279 31.5463C26.9279 24.583 35.4165 17.9003 42.1752 17.9003C49.8805 17.3646 59 20.505 57.4226 31.5464Z" fill="#FF0A0A"/>
<path d="M55.8452 33.4935C55.8452 38.9566 51.0045 45.2167 43.7525 45.2167C38.3455 45.2167 32.1855 38.9566 32.1855 33.4935C31.1341 25.7628 38.3455 22.1359 43.7525 22.1359C51.3671 21.4029 56.371 24.7113 55.8452 33.4935Z" fill="#FE4949"/>
<g filter="url(#filter9_d)">
<path d="M333.455 12.0965L336.524 5.13236L338.305 3.04723e-05L339.516 4.93039L338.163 9.45211L334.665 17.0269L332.701 21.1196L331.131 21.4081L330.099 17.0351L333.455 12.0965Z" fill="url(#paint4_linear)"/>
</g>
<g filter="url(#filter10_d)">
<path d="M326.93 3.73181L329.169 11.9407L331.408 17.1645L329.169 18.657L326.93 12.6869L323.199 6.71685L326.93 3.73181Z" fill="url(#paint5_linear)"/>
</g>
<g filter="url(#filter11_d)">
<path d="M322.89 24.2759L316.707 28.7134L312.564 32.2275L314.028 27.3664L316.707 23.1339L322.89 20.505L326.798 16.2984L332.581 14.1953L336.788 15.773L334.159 18.4015L328.29 21.7288L322.89 24.2759Z" fill="url(#paint6_linear)"/>
</g>
<g filter="url(#filter12_d)">
<path d="M341.537 13.5008L348.999 12.0083L354.223 10.5157L350.885 14.3403L346.407 15.8328L338.198 17.3254L333.721 18.0716L332.582 16.9522L335.567 13.5941L341.537 13.5008Z" fill="url(#paint7_linear)"/>
</g>
<g filter="url(#filter13_d)">
<path d="M360 34.7012C360 43.6393 348.848 49.6062 338.975 49.6062C327.934 49.6062 321.619 39.3158 321.619 29.4431C321.619 19.5703 333.303 14.7214 343.175 14.7214C349.485 14.7214 360 16.8249 360 34.7012Z" fill="#F40000"/>
</g>
<path d="M358.423 31.5464C358.423 38.5097 352.24 47.3195 343.175 47.3195C336.416 47.3195 327.928 38.5096 327.928 31.5463C327.928 24.583 336.416 17.9003 343.175 17.9003C350.881 17.3646 360 20.505 358.423 31.5464Z" fill="#FF0A0A"/>
<path d="M356.845 33.4935C356.845 38.9566 352.005 45.2167 344.752 45.2167C339.345 45.2167 333.186 38.9566 333.186 33.4935C332.134 25.7628 339.345 22.1359 344.752 22.1359C352.367 21.4029 357.371 24.7113 356.845 33.4935Z" fill="#FE4949"/>
<g filter="url(#filter14_d)">
<path d="M438.455 12.0965L441.524 5.13236L443.305 3.04723e-05L444.516 4.93039L443.163 9.45211L439.665 17.0269L437.701 21.1196L436.131 21.4081L435.099 17.0351L438.455 12.0965Z" fill="url(#paint8_linear)"/>
</g>
<g filter="url(#filter15_d)">
<path d="M431.93 3.73181L434.169 11.9407L436.408 17.1645L434.169 18.657L431.93 12.6869L428.199 6.71685L431.93 3.73181Z" fill="url(#paint9_linear)"/>
</g>
<g filter="url(#filter16_d)">
<path d="M427.89 24.2759L421.707 28.7134L417.564 32.2275L419.028 27.3664L421.707 23.1339L427.89 20.505L431.798 16.2984L437.581 14.1953L441.788 15.773L439.159 18.4015L433.29 21.7288L427.89 24.2759Z" fill="url(#paint10_linear)"/>
</g>
<g filter="url(#filter17_d)">
<path d="M446.537 13.5008L453.999 12.0083L459.223 10.5157L455.885 14.3403L451.407 15.8328L443.198 17.3254L438.721 18.0716L437.582 16.9522L440.567 13.5941L446.537 13.5008Z" fill="url(#paint11_linear)"/>
</g>
<g filter="url(#filter18_d)">
<path d="M465 34.7012C465 43.6393 453.848 49.6062 443.975 49.6062C432.934 49.6062 426.619 39.3158 426.619 29.4431C426.619 19.5703 438.303 14.7214 448.175 14.7214C454.485 14.7214 465 16.8249 465 34.7012Z" fill="#F40000"/>
</g>
<path d="M463.423 31.5464C463.423 38.5097 457.24 47.3195 448.175 47.3195C441.416 47.3195 432.928 38.5096 432.928 31.5463C432.928 24.583 441.416 17.9003 448.175 17.9003C455.881 17.3646 465 20.505 463.423 31.5464Z" fill="#FF0A0A"/>
<path d="M461.845 33.4935C461.845 38.9566 457.005 45.2167 449.752 45.2167C444.345 45.2167 438.186 38.9566 438.186 33.4935C437.134 25.7628 444.345 22.1359 449.752 22.1359C457.367 21.4029 462.371 24.7113 461.845 33.4935Z" fill="#FE4949"/>
<defs>
<filter id="filter0_i" x="12" y="0" width="458" height="58" filterUnits="userSpaceOnUse" color-interpolation-filters="sRGB">
<feFlood flood-opacity="0" result="BackgroundImageFix"/>
<feBlend mode="normal" in="SourceGraphic" in2="BackgroundImageFix" result="shape"/>
<feColorMatrix in="SourceAlpha" type="matrix" values="0 0 0 0 0 0 0 0 0 0 0 0 0 0 0 0 0 0 127 0" result="hardAlpha"/>
<feOffset dy="4"/>
<feGaussianBlur stdDeviation="2"/>
<feComposite in2="hardAlpha" operator="arithmetic" k2="-1" k3="1"/>
<feColorMatrix type="matrix" values="0 0 0 0 0 0 0 0 0 0 0 0 0 0 0 0 0 0 0.25 0"/>
<feBlend mode="normal" in2="shape" result="effect1_innerShadow"/>
</filter>
<filter id="filter1_d" x="10.6722" y="56.8" width="54.7328" height="22.36" filterUnits="userSpaceOnUse" color-interpolation-filters="sRGB">
<feFlood flood-opacity="0" result="BackgroundImageFix"/>
<feColorMatrix in="SourceAlpha" type="matrix" values="0 0 0 0 0 0 0 0 0 0 0 0 0 0 0 0 0 0 127 0"/>
<feOffset dy="4"/>
<feGaussianBlur stdDeviation="2"/>
<feColorMatrix type="matrix" values="0 0 0 0 0 0 0 0 0 0 0 0 0 0 0 0 0 0 0.25 0"/>
<feBlend mode="normal" in2="BackgroundImageFix" result="effect1_dropShadow"/>
<feBlend mode="normal" in="SourceGraphic" in2="effect1_dropShadow" result="shape"/>
</filter>
<filter id="filter2_d" x="310.089" y="56.8" width="58.7984" height="42.36" filterUnits="userSpaceOnUse" color-interpolation-filters="sRGB">
<feFlood flood-opacity="0" result="BackgroundImageFix"/>
<feColorMatrix in="SourceAlpha" type="matrix" values="0 0 0 0 0 0 0 0 0 0 0 0 0 0 0 0 0 0 127 0"/>
<feOffset dy="4"/>
<feGaussianBlur stdDeviation="2"/>
<feColorMatrix type="matrix" values="0 0 0 0 0 0 0 0 0 0 0 0 0 0 0 0 0 0 0.25 0"/>
<feBlend mode="normal" in2="BackgroundImageFix" result="effect1_dropShadow"/>
<feBlend mode="normal" in="SourceGraphic" in2="effect1_dropShadow" result="shape"/>
</filter>
<filter id="filter3_d" x="418.312" y="58.8" width="51.7072" height="22.36" filterUnits="userSpaceOnUse" color-interpolation-filters="sRGB">
<feFlood flood-opacity="0" result="BackgroundImageFix"/>
<feColorMatrix in="SourceAlpha" type="matrix" values="0 0 0 0 0 0 0 0 0 0 0 0 0 0 0 0 0 0 127 0"/>
<feOffset dy="4"/>
<feGaussianBlur stdDeviation="2"/>
<feColorMatrix type="matrix" values="0 0 0 0 0 0 0 0 0 0 0 0 0 0 0 0 0 0 0.25 0"/>
<feBlend mode="normal" in2="BackgroundImageFix" result="effect1_dropShadow"/>
<feBlend mode="normal" in="SourceGraphic" in2="effect1_dropShadow" result="shape"/>
</filter>
<filter id="filter4_d" x="20.8641" y="0" width="26.6238" height="30.0516" filterUnits="userSpaceOnUse" color-interpolation-filters="sRGB">
<feFlood flood-opacity="0" result="BackgroundImageFix"/>
<feColorMatrix in="SourceAlpha" type="matrix" values="0 0 0 0 0 0 0 0 0 0 0 0 0 0 0 0 0 0 127 0"/>
<feOffset dy="4"/>
<feGaussianBlur stdDeviation="2"/>
<feColorMatrix type="matrix" values="0 0 0 0 0 0 0 0 0 0 0 0 0 0 0 0 0 0 0.25 0"/>
<feBlend mode="normal" in2="BackgroundImageFix" result="effect1_dropShadow"/>
<feBlend mode="normal" in="SourceGraphic" in2="effect1_dropShadow" result="shape"/>
</filter>
<filter id="filter5_d" x="18.1989" y="3.73181" width="16.2089" height="22.9252" filterUnits="userSpaceOnUse" color-interpolation-filters="sRGB">
<feFlood flood-opacity="0" result="BackgroundImageFix"/>
<feColorMatrix in="SourceAlpha" type="matrix" values="0 0 0 0 0 0 0 0 0 0 0 0 0 0 0 0 0 0 127 0"/>
<feOffset dy="4"/>
<feGaussianBlur stdDeviation="2"/>
<feColorMatrix type="matrix" values="0 0 0 0 0 0 0 0 0 0 0 0 0 0 0 0 0 0 0.25 0"/>
<feBlend mode="normal" in2="BackgroundImageFix" result="effect1_dropShadow"/>
<feBlend mode="normal" in="SourceGraphic" in2="effect1_dropShadow" result="shape"/>
</filter>
<filter id="filter6_d" x="4" y="12.4557" width="37.8495" height="27.7717" filterUnits="userSpaceOnUse" color-interpolation-filters="sRGB">
<feFlood flood-opacity="0" result="BackgroundImageFix"/>
<feColorMatrix in="SourceAlpha" type="matrix" values="0 0 0 0 0 0 0 0 0 0 0 0 0 0 0 0 0 0 127 0"/>
<feOffset dy="4"/>
<feGaussianBlur stdDeviation="2"/>
<feColorMatrix type="matrix" values="0 0 0 0 0 0 0 0 0 0 0 0 0 0 0 0 0 0 0.25 0"/>
<feBlend mode="normal" in2="BackgroundImageFix" result="effect1_dropShadow"/>
<feBlend mode="normal" in="SourceGraphic" in2="effect1_dropShadow" result="shape"/>
</filter>
<filter id="filter7_d" x="27.5817" y="10.5157" width="29.6415" height="15.5559" filterUnits="userSpaceOnUse" color-interpolation-filters="sRGB">
<feFlood flood-opacity="0" result="BackgroundImageFix"/>
<feColorMatrix in="SourceAlpha" type="matrix" values="0 0 0 0 0 0 0 0 0 0 0 0 0 0 0 0 0 0 127 0"/>
<feOffset dy="4"/>
<feGaussianBlur stdDeviation="2"/>
<feColorMatrix type="matrix" values="0 0 0 0 0 0 0 0 0 0 0 0 0 0 0 0 0 0 0.25 0"/>
<feBlend mode="normal" in2="BackgroundImageFix" result="effect1_dropShadow"/>
<feBlend mode="normal" in="SourceGraphic" in2="effect1_dropShadow" result="shape"/>
</filter>
<filter id="filter8_d" x="16.6188" y="14.7214" width="46.3814" height="42.8848" filterUnits="userSpaceOnUse" color-interpolation-filters="sRGB">
<feFlood flood-opacity="0" result="BackgroundImageFix"/>
<feColorMatrix in="SourceAlpha" type="matrix" values="0 0 0 0 0 0 0 0 0 0 0 0 0 0 0 0 0 0 127 0"/>
<feOffset dy="4"/>
<feGaussianBlur stdDeviation="2"/>
<feColorMatrix type="matrix" values="0 0 0 0 0 0 0 0 0 0 0 0 0 0 0 0 0 0 0.3 0"/>
<feBlend mode="normal" in2="BackgroundImageFix" result="effect1_dropShadow"/>
<feBlend mode="normal" in="SourceGraphic" in2="effect1_dropShadow" result="shape"/>
</filter>
<filter id="filter9_d" x="321.864" y="0" width="26.6238" height="30.0516" filterUnits="userSpaceOnUse" color-interpolation-filters="sRGB">
<feFlood flood-opacity="0" result="BackgroundImageFix"/>
<feColorMatrix in="SourceAlpha" type="matrix" values="0 0 0 0 0 0 0 0 0 0 0 0 0 0 0 0 0 0 127 0"/>
<feOffset dy="4"/>
<feGaussianBlur stdDeviation="2"/>
<feColorMatrix type="matrix" values="0 0 0 0 0 0 0 0 0 0 0 0 0 0 0 0 0 0 0.25 0"/>
<feBlend mode="normal" in2="BackgroundImageFix" result="effect1_dropShadow"/>
<feBlend mode="normal" in="SourceGraphic" in2="effect1_dropShadow" result="shape"/>
</filter>
<filter id="filter10_d" x="319.199" y="3.73181" width="16.2089" height="22.9252" filterUnits="userSpaceOnUse" color-interpolation-filters="sRGB">
<feFlood flood-opacity="0" result="BackgroundImageFix"/>
<feColorMatrix in="SourceAlpha" type="matrix" values="0 0 0 0 0 0 0 0 0 0 0 0 0 0 0 0 0 0 127 0"/>
<feOffset dy="4"/>
<feGaussianBlur stdDeviation="2"/>
<feColorMatrix type="matrix" values="0 0 0 0 0 0 0 0 0 0 0 0 0 0 0 0 0 0 0.25 0"/>
<feBlend mode="normal" in2="BackgroundImageFix" result="effect1_dropShadow"/>
<feBlend mode="normal" in="SourceGraphic" in2="effect1_dropShadow" result="shape"/>
</filter>
<filter id="filter11_d" x="305" y="12.4557" width="37.8495" height="27.7717" filterUnits="userSpaceOnUse" color-interpolation-filters="sRGB">
<feFlood flood-opacity="0" result="BackgroundImageFix"/>
<feColorMatrix in="SourceAlpha" type="matrix" values="0 0 0 0 0 0 0 0 0 0 0 0 0 0 0 0 0 0 127 0"/>
<feOffset dy="4"/>
<feGaussianBlur stdDeviation="2"/>
<feColorMatrix type="matrix" values="0 0 0 0 0 0 0 0 0 0 0 0 0 0 0 0 0 0 0.25 0"/>
<feBlend mode="normal" in2="BackgroundImageFix" result="effect1_dropShadow"/>
<feBlend mode="normal" in="SourceGraphic" in2="effect1_dropShadow" result="shape"/>
</filter>
<filter id="filter12_d" x="328.582" y="10.5157" width="29.6415" height="15.5559" filterUnits="userSpaceOnUse" color-interpolation-filters="sRGB">
<feFlood flood-opacity="0" result="BackgroundImageFix"/>
<feColorMatrix in="SourceAlpha" type="matrix" values="0 0 0 0 0 0 0 0 0 0 0 0 0 0 0 0 0 0 127 0"/>
<feOffset dy="4"/>
<feGaussianBlur stdDeviation="2"/>
<feColorMatrix type="matrix" values="0 0 0 0 0 0 0 0 0 0 0 0 0 0 0 0 0 0 0.25 0"/>
<feBlend mode="normal" in2="BackgroundImageFix" result="effect1_dropShadow"/>
<feBlend mode="normal" in="SourceGraphic" in2="effect1_dropShadow" result="shape"/>
</filter>
<filter id="filter13_d" x="317.619" y="14.7214" width="46.3814" height="42.8848" filterUnits="userSpaceOnUse" color-interpolation-filters="sRGB">
<feFlood flood-opacity="0" result="BackgroundImageFix"/>
<feColorMatrix in="SourceAlpha" type="matrix" values="0 0 0 0 0 0 0 0 0 0 0 0 0 0 0 0 0 0 127 0"/>
<feOffset dy="4"/>
<feGaussianBlur stdDeviation="2"/>
<feColorMatrix type="matrix" values="0 0 0 0 0 0 0 0 0 0 0 0 0 0 0 0 0 0 0.3 0"/>
<feBlend mode="normal" in2="BackgroundImageFix" result="effect1_dropShadow"/>
<feBlend mode="normal" in="SourceGraphic" in2="effect1_dropShadow" result="shape"/>
</filter>
<filter id="filter14_d" x="426.864" y="0" width="26.6238" height="30.0516" filterUnits="userSpaceOnUse" color-interpolation-filters="sRGB">
<feFlood flood-opacity="0" result="BackgroundImageFix"/>
<feColorMatrix in="SourceAlpha" type="matrix" values="0 0 0 0 0 0 0 0 0 0 0 0 0 0 0 0 0 0 127 0"/>
<feOffset dy="4"/>
<feGaussianBlur stdDeviation="2"/>
<feColorMatrix type="matrix" values="0 0 0 0 0 0 0 0 0 0 0 0 0 0 0 0 0 0 0.25 0"/>
<feBlend mode="normal" in2="BackgroundImageFix" result="effect1_dropShadow"/>
<feBlend mode="normal" in="SourceGraphic" in2="effect1_dropShadow" result="shape"/>
</filter>
<filter id="filter15_d" x="424.199" y="3.73181" width="16.2089" height="22.9252" filterUnits="userSpaceOnUse" color-interpolation-filters="sRGB">
<feFlood flood-opacity="0" result="BackgroundImageFix"/>
<feColorMatrix in="SourceAlpha" type="matrix" values="0 0 0 0 0 0 0 0 0 0 0 0 0 0 0 0 0 0 127 0"/>
<feOffset dy="4"/>
<feGaussianBlur stdDeviation="2"/>
<feColorMatrix type="matrix" values="0 0 0 0 0 0 0 0 0 0 0 0 0 0 0 0 0 0 0.25 0"/>
<feBlend mode="normal" in2="BackgroundImageFix" result="effect1_dropShadow"/>
<feBlend mode="normal" in="SourceGraphic" in2="effect1_dropShadow" result="shape"/>
</filter>
<filter id="filter16_d" x="410" y="12.4557" width="37.8495" height="27.7717" filterUnits="userSpaceOnUse" color-interpolation-filters="sRGB">
<feFlood flood-opacity="0" result="BackgroundImageFix"/>
<feColorMatrix in="SourceAlpha" type="matrix" values="0 0 0 0 0 0 0 0 0 0 0 0 0 0 0 0 0 0 127 0"/>
<feOffset dy="4"/>
<feGaussianBlur stdDeviation="2"/>
<feColorMatrix type="matrix" values="0 0 0 0 0 0 0 0 0 0 0 0 0 0 0 0 0 0 0.25 0"/>
<feBlend mode="normal" in2="BackgroundImageFix" result="effect1_dropShadow"/>
<feBlend mode="normal" in="SourceGraphic" in2="effect1_dropShadow" result="shape"/>
</filter>
<filter id="filter17_d" x="433.582" y="10.5157" width="29.6415" height="15.5559" filterUnits="userSpaceOnUse" color-interpolation-filters="sRGB">
<feFlood flood-opacity="0" result="BackgroundImageFix"/>
<feColorMatrix in="SourceAlpha" type="matrix" values="0 0 0 0 0 0 0 0 0 0 0 0 0 0 0 0 0 0 127 0"/>
<feOffset dy="4"/>
<feGaussianBlur stdDeviation="2"/>
<feColorMatrix type="matrix" values="0 0 0 0 0 0 0 0 0 0 0 0 0 0 0 0 0 0 0.25 0"/>
<feBlend mode="normal" in2="BackgroundImageFix" result="effect1_dropShadow"/>
<feBlend mode="normal" in="SourceGraphic" in2="effect1_dropShadow" result="shape"/>
</filter>
<filter id="filter18_d" x="422.619" y="14.7214" width="46.3814" height="42.8848" filterUnits="userSpaceOnUse" color-interpolation-filters="sRGB">
<feFlood flood-opacity="0" result="BackgroundImageFix"/>
<feColorMatrix in="SourceAlpha" type="matrix" values="0 0 0 0 0 0 0 0 0 0 0 0 0 0 0 0 0 0 127 0"/>
<feOffset dy="4"/>
<feGaussianBlur stdDeviation="2"/>
<feColorMatrix type="matrix" values="0 0 0 0 0 0 0 0 0 0 0 0 0 0 0 0 0 0 0.3 0"/>
<feBlend mode="normal" in2="BackgroundImageFix" result="effect1_dropShadow"/>
<feBlend mode="normal" in="SourceGraphic" in2="effect1_dropShadow" result="shape"/>
</filter>
<linearGradient id="paint0_linear" x1="38.9424" y1="2.62891" x2="32.1074" y2="15.2474" gradientUnits="userSpaceOnUse">
<stop stop-color="#8CD024"/>
<stop offset="1" stop-color="#70A81A"/>
</linearGradient>
<linearGradient id="paint1_linear" x1="24.2207" y1="6.30933" x2="28.9526" y2="16.8248" gradientUnits="userSpaceOnUse">
<stop stop-color="#8CD024"/>
<stop offset="1" stop-color="#70A81A"/>
</linearGradient>
<linearGradient id="paint2_linear" x1="13.7053" y1="28.9174" x2="29.4785" y2="16.8246" gradientUnits="userSpaceOnUse">
<stop stop-color="#8CD024"/>
<stop offset="1" stop-color="#70A81A"/>
</linearGradient>
<linearGradient id="paint3_linear" x1="52.1712" y1="12.6014" x2="29.0373" y2="18.3849" gradientUnits="userSpaceOnUse">
<stop stop-color="#8CD024"/>
<stop offset="1" stop-color="#70A81A"/>
</linearGradient>
<linearGradient id="paint4_linear" x1="339.942" y1="2.62891" x2="333.107" y2="15.2474" gradientUnits="userSpaceOnUse">
<stop stop-color="#8CD024"/>
<stop offset="1" stop-color="#70A81A"/>
</linearGradient>
<linearGradient id="paint5_linear" x1="325.221" y1="6.30933" x2="329.953" y2="16.8248" gradientUnits="userSpaceOnUse">
<stop stop-color="#8CD024"/>
<stop offset="1" stop-color="#70A81A"/>
</linearGradient>
<linearGradient id="paint6_linear" x1="314.705" y1="28.9174" x2="330.478" y2="16.8246" gradientUnits="userSpaceOnUse">
<stop stop-color="#8CD024"/>
<stop offset="1" stop-color="#70A81A"/>
</linearGradient>
<linearGradient id="paint7_linear" x1="353.171" y1="12.6014" x2="330.037" y2="18.3849" gradientUnits="userSpaceOnUse">
<stop stop-color="#8CD024"/>
<stop offset="1" stop-color="#70A81A"/>
</linearGradient>
<linearGradient id="paint8_linear" x1="444.942" y1="2.62891" x2="438.107" y2="15.2474" gradientUnits="userSpaceOnUse">
<stop stop-color="#8CD024"/>
<stop offset="1" stop-color="#70A81A"/>
</linearGradient>
<linearGradient id="paint9_linear" x1="430.221" y1="6.30933" x2="434.953" y2="16.8248" gradientUnits="userSpaceOnUse">
<stop stop-color="#8CD024"/>
<stop offset="1" stop-color="#70A81A"/>
</linearGradient>
<linearGradient id="paint10_linear" x1="419.705" y1="28.9174" x2="435.478" y2="16.8246" gradientUnits="userSpaceOnUse">
<stop stop-color="#8CD024"/>
<stop offset="1" stop-color="#70A81A"/>
</linearGradient>
<linearGradient id="paint11_linear" x1="458.171" y1="12.6014" x2="435.037" y2="18.3849" gradientUnits="userSpaceOnUse">
<stop stop-color="#8CD024"/>
<stop offset="1" stop-color="#70A81A"/>
</linearGradient>
</defs>
</svg>
