<svg width="467" height="315" viewBox="0 0 467 315" fill="none" xmlns="http://www.w3.org/2000/svg">
<g filter="url(#filter0_d)">
<path d="M22.587 296.594C20.2211 297.363 17.9624 296.937 17.5419 295.642C17.1213 294.348 18.6983 292.676 21.0642 291.907C23.43 291.138 32.1143 289.477 32.5348 290.771C32.9554 292.065 24.9528 295.825 22.587 296.594Z" fill="url(#paint0_linear)"/>
<path d="M14.7592 267.424C12.0599 267.851 9.66959 266.921 9.4202 265.347C9.17081 263.772 11.1568 262.149 13.8561 261.722C16.5554 261.294 26.2769 261.063 26.5263 262.637C26.7757 264.212 17.4585 266.996 14.7592 267.424Z" fill="url(#paint1_linear)"/>
<path d="M9.10809 231.237C6.28683 231.237 3.99976 229.903 3.99976 228.257C3.99976 226.611 6.28683 225.277 9.10809 225.277C11.9293 225.277 21.8789 226.611 21.8789 228.257C21.8789 229.903 11.9293 231.237 9.10809 231.237Z" fill="white"/>
<path d="M13.8563 197.948C11.157 197.52 9.17102 195.897 9.42041 194.323C9.6698 192.748 12.0601 191.818 14.7594 192.246C17.4587 192.673 26.7759 195.457 26.5265 197.032C26.2771 198.607 16.5556 198.375 13.8563 197.948Z" fill="white"/>
<path d="M16.0896 162.884C12.3506 161.67 9.99666 158.601 10.8318 156.031C11.667 153.46 15.3751 152.361 19.1141 153.576C22.853 154.791 35.362 161.159 34.5268 163.73C33.6917 166.3 19.8286 164.099 16.0896 162.884Z" fill="white"/>
<path d="M32.461 132.492C30.0969 131.287 28.9044 128.89 29.7976 127.137C30.6908 125.384 33.3315 124.939 35.6957 126.144C38.0598 127.348 45.6734 133.018 44.7801 134.771C43.8869 136.524 34.8252 133.697 32.461 132.492Z" fill="white"/>
<path d="M52.7234 101.537C50.5124 99.9305 49.4797 97.5827 50.4167 96.293C51.3538 95.0033 53.9057 95.2599 56.1167 96.8663C58.3277 98.4727 65.3654 105.183 64.4283 106.473C63.4913 107.763 54.9343 103.143 52.7234 101.537Z" fill="white"/>
<path d="M74.8875 74.8211C72.9551 72.8887 72.3023 70.4083 73.4296 69.281C74.5569 68.1538 77.0373 68.8065 78.9697 70.7389C80.9022 72.6714 86.8035 80.4003 85.6762 81.5276C84.5489 82.6549 76.82 76.7536 74.8875 74.8211Z" fill="white"/>
<path d="M101.015 51.968C99.4087 49.757 99.152 47.2051 100.442 46.268C101.731 45.331 104.079 46.3637 105.686 48.5747C107.292 50.7856 111.911 59.3426 110.622 60.2796C109.332 61.2167 102.621 54.179 101.015 51.968Z" fill="white"/>
<path d="M122.753 26.7081C120.671 22.6206 120.915 18.3222 123.299 17.1072C125.684 15.8923 129.305 18.2211 131.388 22.3086C133.471 26.3961 138.883 41.7962 136.498 43.0111C134.114 44.226 124.836 30.7956 122.753 26.7081Z" fill="white"/>
<path d="M162.258 18.8849C161.413 16.2858 161.958 13.7794 163.474 13.2868C164.99 12.7941 166.904 14.5018 167.748 17.1009C168.593 19.7001 170.342 29.2658 168.826 29.7584C167.31 30.251 163.102 21.4841 162.258 18.8849Z" fill="white"/>
<path d="M195.462 10.8346C195.034 8.13536 196.177 5.71131 198.014 5.42036C199.851 5.1294 201.687 7.08173 202.114 9.78099C202.542 12.4803 202.56 22.2355 200.723 22.5264C198.886 22.8174 195.889 13.5339 195.462 10.8346Z" fill="white"/>
<path d="M229.277 5.44887C229.277 2.43953 230.878 -1.33514e-05 232.853 -1.33514e-05C234.828 -1.33514e-05 236.429 2.43953 236.429 5.44887C236.429 8.4582 234.828 19.0711 232.853 19.0711C230.878 19.0711 229.277 8.4582 229.277 5.44887Z" fill="white"/>
<path d="M264.938 9.78104C265.365 7.08178 267.201 5.12946 269.038 5.42041C270.875 5.71136 272.018 8.13541 271.59 10.8347C271.163 13.5339 268.166 22.8174 266.329 22.5265C264.492 22.2355 264.51 12.4803 264.938 9.78104Z" fill="white"/>
<path d="M299.114 11.0538C300.393 7.11888 303.6 4.63434 306.278 5.50446C308.956 6.37458 310.09 10.2699 308.812 14.2048C307.533 18.1398 300.853 31.3117 298.176 30.4415C295.498 29.5714 297.836 14.9888 299.114 11.0538Z" fill="white"/>
<path d="M331.796 30.3051C333.037 27.87 335.386 26.5805 337.043 27.4249C338.701 28.2693 339.038 30.9278 337.797 33.3628C336.557 35.7978 330.838 43.7009 329.181 42.8565C327.523 42.0121 330.556 32.7401 331.796 30.3051Z" fill="white"/>
<path d="M361.434 48.4405C363.041 46.2296 365.563 45.3234 367.067 46.4167C368.572 47.5099 368.49 50.1885 366.883 52.3994C365.277 54.6104 358.392 61.5215 356.887 60.4283C355.383 59.335 359.828 50.6515 361.434 48.4405Z" fill="white"/>
<path d="M389.161 70.5473C391.094 68.6149 393.726 68.1144 395.042 69.4296C396.357 70.7447 395.856 73.3774 393.924 75.3099C391.991 77.2423 384.11 82.9913 382.795 81.6762C381.48 80.361 387.229 72.4798 389.161 70.5473Z" fill="white"/>
<path d="M412.072 96.626C414.283 95.0196 416.961 94.9372 418.055 96.4419C419.148 97.9466 418.242 100.469 416.031 102.075C413.82 103.681 405.136 108.127 404.043 106.622C402.95 105.117 409.861 98.2323 412.072 96.626Z" fill="white"/>
<path d="M438.286 122.294C442.187 120.307 446.446 120.847 447.799 123.502C449.151 126.157 447.085 129.92 443.185 131.908C439.284 133.895 424.43 138.753 423.078 136.098C421.725 133.443 434.385 124.282 438.286 122.294Z" fill="white"/>
<path d="M444.327 158.762C446.926 157.917 449.499 158.667 450.074 160.436C450.649 162.204 449.008 164.323 446.409 165.168C443.809 166.012 434.177 167.556 433.602 165.788C433.028 164.019 441.728 159.606 444.327 158.762Z" fill="white"/>
<path d="M452.674 191.919C455.374 191.491 457.798 192.634 458.089 194.471C458.379 196.308 456.427 198.144 453.728 198.571C451.029 198.999 441.273 199.017 440.982 197.18C440.692 195.343 449.975 192.347 452.674 191.919Z" fill="white"/>
<path d="M456.597 225.277C459.419 225.277 461.706 226.878 461.706 228.853C461.706 230.828 459.419 232.429 456.597 232.429C453.776 232.429 443.827 230.828 443.827 228.853C443.827 226.878 453.776 225.277 456.597 225.277Z" fill="white"/>
<path d="M454.69 261.395C457.389 261.822 459.342 263.658 459.051 265.495C458.76 267.332 456.336 268.475 453.637 268.047C450.937 267.62 441.654 264.623 441.945 262.786C442.236 260.949 451.991 260.967 454.69 261.395Z" fill="white"/>
<path d="M454.634 294.227C458.777 295.573 461.393 298.95 460.477 301.77C459.561 304.589 455.459 305.784 451.316 304.438C447.173 303.091 433.305 296.058 434.221 293.239C435.137 290.419 450.491 292.881 454.634 294.227Z" fill="white"/>
</g>
<defs>
<filter id="filter0_d" x="0" y="0" width="466.136" height="314.875" filterUnits="userSpaceOnUse" color-interpolation-filters="sRGB">
<feFlood flood-opacity="0" result="BackgroundImageFix"/>
<feColorMatrix in="SourceAlpha" type="matrix" values="0 0 0 0 0 0 0 0 0 0 0 0 0 0 0 0 0 0 127 0"/>
<feOffset dy="4"/>
<feGaussianBlur stdDeviation="2"/>
<feColorMatrix type="matrix" values="0 0 0 0 0 0 0 0 0 0 0 0 0 0 0 0 0 0 0.25 0"/>
<feBlend mode="normal" in2="BackgroundImageFix" result="effect1_dropShadow"/>
<feBlend mode="normal" in="SourceGraphic" in2="effect1_dropShadow" result="shape"/>
</filter>
<linearGradient id="paint0_linear" x1="32.5348" y1="290.771" x2="17.5419" y2="295.642" gradientUnits="userSpaceOnUse">
<stop stop-color="#FEC672"/>
<stop offset="1" stop-color="#FFE70F"/>
</linearGradient>
<linearGradient id="paint1_linear" x1="26.5263" y1="262.637" x2="9.4202" y2="265.347" gradientUnits="userSpaceOnUse">
<stop stop-color="#FEC672"/>
<stop offset="1" stop-color="#FFE70F"/>
</linearGradient>
</defs>
</svg>
