<svg width="135" height="74" viewBox="0 0 135 74" fill="none" xmlns="http://www.w3.org/2000/svg">
<g filter="url(#filter0_d)">
<path d="M4 30C4 13.4315 17.4315 0 34 0H100.346C116.915 0 130.346 13.4315 130.346 30V35.5569C130.346 52.1254 116.915 65.5569 100.346 65.5569H34C17.4315 65.5569 4 52.1254 4 35.5569V30Z" fill="white"/>
</g>
<g filter="url(#filter1_i)">
<path d="M66.5 18V8L54.3125 20.5L66.5 33V23C74.5681 23 81.125 29.725 81.125 38C81.125 46.275 74.5681 53 66.5 53C58.4319 53 51.875 46.275 51.875 38H47C47 49.05 55.7262 58 66.5 58C77.2738 58 86 49.05 86 38C86 26.95 77.2738 18 66.5 18Z" fill="#FF1C1C"/>
</g>
<defs>
<filter id="filter0_d" x="0" y="0" width="134.346" height="73.5569" filterUnits="userSpaceOnUse" color-interpolation-filters="sRGB">
<feFlood flood-opacity="0" result="BackgroundImageFix"/>
<feColorMatrix in="SourceAlpha" type="matrix" values="0 0 0 0 0 0 0 0 0 0 0 0 0 0 0 0 0 0 127 0"/>
<feOffset dy="4"/>
<feGaussianBlur stdDeviation="2"/>
<feColorMatrix type="matrix" values="0 0 0 0 0 0 0 0 0 0 0 0 0 0 0 0 0 0 0.25 0"/>
<feBlend mode="normal" in2="BackgroundImageFix" result="effect1_dropShadow"/>
<feBlend mode="normal" in="SourceGraphic" in2="effect1_dropShadow" result="shape"/>
</filter>
<filter id="filter1_i" x="47" y="8" width="39" height="54" filterUnits="userSpaceOnUse" color-interpolation-filters="sRGB">
<feFlood flood-opacity="0" result="BackgroundImageFix"/>
<feBlend mode="normal" in="SourceGraphic" in2="BackgroundImageFix" result="shape"/>
<feColorMatrix in="SourceAlpha" type="matrix" values="0 0 0 0 0 0 0 0 0 0 0 0 0 0 0 0 0 0 127 0" result="hardAlpha"/>
<feOffset dy="4"/>
<feGaussianBlur stdDeviation="2"/>
<feComposite in2="hardAlpha" operator="arithmetic" k2="-1" k3="1"/>
<feColorMatrix type="matrix" values="0 0 0 0 0 0 0 0 0 0 0 0 0 0 0 0 0 0 0.25 0"/>
<feBlend mode="normal" in2="shape" result="effect1_innerShadow"/>
</filter>
</defs>
</svg>
