<svg width="53" height="44" viewBox="0 0 53 44" fill="none" xmlns="http://www.w3.org/2000/svg">
<path d="M4.2973 17.6C1.91946 17.6 0 19.5653 0 22C0 24.4347 1.91946 26.4 4.2973 26.4C6.67514 26.4 8.59459 24.4347 8.59459 22C8.59459 19.5653 6.67514 17.6 4.2973 17.6ZM4.2973 0C1.91946 0 0 1.96533 0 4.4C0 6.83467 1.91946 8.8 4.2973 8.8C6.67514 8.8 8.59459 6.83467 8.59459 4.4C8.59459 1.96533 6.67514 0 4.2973 0ZM4.2973 35.2C1.91946 35.2 0 37.1947 0 39.6C0 42.0053 1.94811 44 4.2973 44C6.64649 44 8.59459 42.0053 8.59459 39.6C8.59459 37.1947 6.67514 35.2 4.2973 35.2ZM12.8919 42.5333H53V36.6667H12.8919V42.5333ZM12.8919 24.9333H53V19.0667H12.8919V24.9333ZM12.8919 1.46667V7.33333H53V1.46667H12.8919Z" fill="#8D3434"/>
</svg>
