<svg width="46" height="55" viewBox="0 0 46 55" fill="none" xmlns="http://www.w3.org/2000/svg">
<g filter="url(#filter0_d)">
<circle cx="23" cy="28" r="18" fill="#F40000"/>
</g>
<g filter="url(#filter1_d)">
<path d="M21.5715 9.99994C21.5715 12.9981 16.4716 20.857 13.0001 20.857C9.52857 20.857 6.71436 18.4266 6.71436 15.4284C6.71436 12.4303 9.52857 9.99987 13.0001 9.99987C16.4716 9.99987 21.5715 7.00182 21.5715 9.99994Z" fill="#248D54"/>
</g>
<path d="M21.5715 9.99993C21.5715 12.9981 16.4716 19.7142 13.0001 19.7142C9.52857 19.7142 6.71436 18.4266 6.71436 15.4284C6.71436 12.4303 9.52857 9.99986 13.0001 9.99986C16.4716 9.99986 21.5715 7.00182 21.5715 9.99993Z" fill="#1F7C4A"/>
<path d="M20.7145 8.85721C20.7145 14.2858 15.0314 18.6437 13.8573 18.8571C10.7145 19.4286 8.42877 18.5714 8.14305 17.7142C4.42865 14.2858 9.00024 10.8573 10.7145 10.2858C12.4288 9.71434 19.8574 8.0001 20.7145 8.85721Z" fill="#34BA72"/>
<g filter="url(#filter2_d)">
<path d="M38.7141 15.5856C38.7141 19.6882 34.9998 20 31.5713 18.5714C22.9998 14.3252 21.857 10.2857 22.1427 10.1569C22.1427 6.05422 28.3257 10.157 32.4284 10.157C35.5713 10.1569 38.7141 11.4829 38.7141 15.5856Z" fill="#268A54"/>
</g>
<path d="M38.7523 15.5377C38.7523 19.6404 33.5713 17.1428 30.1428 15.7142C21.5713 11.468 21.8952 10.2379 22.1809 10.1091C22.1809 6.00639 28.04 10.1091 32.1427 10.1091C35.2855 10.1091 38.7523 11.435 38.7523 15.5377Z" fill="#1F7C4A"/>
<path d="M38.4285 15.4285C37.8571 17.4285 34.1428 15.7143 30.7142 14.2857C27.5714 12.5714 21.8951 10.2379 22.1808 10.1091C22.1808 6.0064 29.183 10.1091 33.2856 10.1091C36.4285 10.1091 39.5714 12.8571 38.4285 15.4285Z" fill="#34BA72"/>
<g filter="url(#filter3_d)">
<path d="M27.2856 17.4286C27.2856 18.691 26.9531 22 24.4284 22C21.9036 22 20.1427 19.5481 20.1427 18.2857C19.857 17.7143 20.4284 9.42861 21.8569 10.2857C22.7142 8.85721 26.9999 15.4286 27.2856 17.4286Z" fill="#238952"/>
</g>
<path d="M20.8393 1.78463C21.1016 0.735791 22.0439 0 23.1251 0C24.6578 0 25.7825 1.44047 25.4108 2.92749L24.5651 6.31026C24.4743 6.67348 24.4284 7.04646 24.4284 7.42086V9.71429C24.4284 10.9767 23.405 12 22.1426 12C20.8803 12 19.8569 10.9767 19.8569 9.71429V6.40327C19.8569 5.94568 19.9131 5.4898 20.024 5.04587L20.8393 1.78463Z" fill="#1F7C4A"/>
<g filter="url(#filter4_d)">
<path d="M21.0798 2.12752C21.3723 1.2012 22.2316 0.571442 23.203 0.571442C24.5875 0.571442 25.6363 1.82154 25.3957 3.18495L25.0845 4.94876C25.0283 5.26697 24.9264 5.57537 24.7819 5.86438L24.7338 5.96057C24.5329 6.3623 24.4284 6.80527 24.4284 7.25442V8.45359C24.4284 9.79392 23.1363 10.7553 21.8525 10.3701L21.7814 10.3488C21.642 10.307 21.4973 10.2857 21.3518 10.2857C20.5262 10.2857 19.8569 9.61645 19.8569 8.79084V6.5724C19.8569 6.19305 19.9151 5.81594 20.0293 5.4542L21.0798 2.12752Z" fill="#34BA72"/>
</g>
<path d="M26.6965 16.2859C26.6965 17.5482 26.9887 20.0001 25.2339 20.8572C23.6192 20.8572 22.4663 20.3608 21.5719 18.5717C21.0003 17.4285 19.286 12 22.1432 10.5715C24.1431 10.5714 26.404 14.2859 26.6965 16.2859Z" fill="#34BA72"/>
<path d="M37.857 14.5715C37.2855 15.0266 37.2538 13.9379 35.4213 12.6439C33.5888 11.3499 31.4926 12.1825 32.4284 10.8572C34.4037 10.8568 34.4458 10.7784 36.2784 12.0724C38.1109 13.3664 38.1427 14.1695 37.857 14.5715Z" fill="white"/>
<path d="M30.7144 42.2856C30.7144 44.2857 28.143 44.8571 25.5716 44.8571C10.7117 44.8571 6.42871 33.2622 6.42871 31.9998C17.5716 41.7142 18.4287 41.7142 25.2859 41.7142C26.7144 41.7142 30.7144 40.5713 30.7144 42.2856Z" fill="#AD0101"/>
<path d="M39.5714 23.1428C40.1428 25.7142 40.4287 28.8571 38.7142 29.7198C37.5714 28.8571 38.2502 25.961 37.8573 23.9999C37.5127 22.2801 33.3622 20.2912 35.5713 20.2912C37.7805 20.2912 38.7143 21.1428 39.5714 23.1428Z" fill="white"/>
<defs>
<filter id="filter0_d" x="0" y="9.00003" width="46" height="46" filterUnits="userSpaceOnUse" color-interpolation-filters="sRGB">
<feFlood flood-opacity="0" result="BackgroundImageFix"/>
<feColorMatrix in="SourceAlpha" type="matrix" values="0 0 0 0 0 0 0 0 0 0 0 0 0 0 0 0 0 0 127 0"/>
<feMorphology radius="1" operator="dilate" in="SourceAlpha" result="effect1_dropShadow"/>
<feOffset dy="4"/>
<feGaussianBlur stdDeviation="2"/>
<feColorMatrix type="matrix" values="0 0 0 0 0 0 0 0 0 0 0 0 0 0 0 0 0 0 0.3 0"/>
<feBlend mode="normal" in2="BackgroundImageFix" result="effect1_dropShadow"/>
<feBlend mode="normal" in="SourceGraphic" in2="effect1_dropShadow" result="shape"/>
</filter>
<filter id="filter1_d" x="2.71436" y="6.66742" width="22.8571" height="20.1896" filterUnits="userSpaceOnUse" color-interpolation-filters="sRGB">
<feFlood flood-opacity="0" result="BackgroundImageFix"/>
<feColorMatrix in="SourceAlpha" type="matrix" values="0 0 0 0 0 0 0 0 0 0 0 0 0 0 0 0 0 0 127 0"/>
<feOffset dy="2"/>
<feGaussianBlur stdDeviation="2"/>
<feColorMatrix type="matrix" values="0 0 0 0 0 0 0 0 0 0 0 0 0 0 0 0 0 0 0.25 0"/>
<feBlend mode="normal" in2="BackgroundImageFix" result="effect1_dropShadow"/>
<feBlend mode="normal" in="SourceGraphic" in2="effect1_dropShadow" result="shape"/>
</filter>
<filter id="filter2_d" x="18.1045" y="6.33351" width="24.6096" height="19.011" filterUnits="userSpaceOnUse" color-interpolation-filters="sRGB">
<feFlood flood-opacity="0" result="BackgroundImageFix"/>
<feColorMatrix in="SourceAlpha" type="matrix" values="0 0 0 0 0 0 0 0 0 0 0 0 0 0 0 0 0 0 127 0"/>
<feOffset dy="2"/>
<feGaussianBlur stdDeviation="2"/>
<feColorMatrix type="matrix" values="0 0 0 0 0 0 0 0 0 0 0 0 0 0 0 0 0 0 0.25 0"/>
<feBlend mode="normal" in2="BackgroundImageFix" result="effect1_dropShadow"/>
<feBlend mode="normal" in="SourceGraphic" in2="effect1_dropShadow" result="shape"/>
</filter>
<filter id="filter3_d" x="16.0713" y="8.08435" width="15.2143" height="19.9156" filterUnits="userSpaceOnUse" color-interpolation-filters="sRGB">
<feFlood flood-opacity="0" result="BackgroundImageFix"/>
<feColorMatrix in="SourceAlpha" type="matrix" values="0 0 0 0 0 0 0 0 0 0 0 0 0 0 0 0 0 0 127 0"/>
<feOffset dy="2"/>
<feGaussianBlur stdDeviation="2"/>
<feColorMatrix type="matrix" values="0 0 0 0 0 0 0 0 0 0 0 0 0 0 0 0 0 0 0.25 0"/>
<feBlend mode="normal" in2="BackgroundImageFix" result="effect1_dropShadow"/>
<feBlend mode="normal" in="SourceGraphic" in2="effect1_dropShadow" result="shape"/>
</filter>
<filter id="filter4_d" x="15.8569" y="0.571442" width="13.5733" height="17.8844" filterUnits="userSpaceOnUse" color-interpolation-filters="sRGB">
<feFlood flood-opacity="0" result="BackgroundImageFix"/>
<feColorMatrix in="SourceAlpha" type="matrix" values="0 0 0 0 0 0 0 0 0 0 0 0 0 0 0 0 0 0 127 0"/>
<feOffset dy="4"/>
<feGaussianBlur stdDeviation="2"/>
<feColorMatrix type="matrix" values="0 0 0 0 0 0 0 0 0 0 0 0 0 0 0 0 0 0 0.25 0"/>
<feBlend mode="normal" in2="BackgroundImageFix" result="effect1_dropShadow"/>
<feBlend mode="normal" in="SourceGraphic" in2="effect1_dropShadow" result="shape"/>
</filter>
</defs>
</svg>
